<svg width="39" height="39" viewBox="0 0 39 39" fill="none" xmlns="http://www.w3.org/2000/svg">
<g opacity="0.7" clip-path="url(#clip0_117_748)">
<path d="M7.44497 12.3006C7.44497 11.9722 7.71148 11.7057 8.03985 11.7057C8.36823 11.7057 8.63474 11.9722 8.63474 12.3006C8.63474 12.629 8.36823 12.8955 8.03985 12.8955C7.71148 12.8955 7.44497 12.629 7.44497 12.3006ZM31.8352 12.8955C32.1636 12.8955 32.4301 12.629 32.4301 12.3006C32.4301 11.9722 32.1636 11.7057 31.8352 11.7057C31.5068 11.7057 31.2403 11.9722 31.2403 12.3006C31.2403 12.629 31.5068 12.8955 31.8352 12.8955ZM8.03985 25.9829C7.71148 25.9829 7.44497 26.2494 7.44497 26.5778C7.44497 26.9062 7.71148 27.1727 8.03985 27.1727C8.36823 27.1727 8.63474 26.9062 8.63474 26.5778C8.63474 26.2494 8.36823 25.9829 8.03985 25.9829ZM31.2403 26.5778C31.2403 26.9062 31.5068 27.1727 31.8352 27.1727C32.1636 27.1727 32.4301 26.9062 32.4301 26.5778C32.4301 26.2494 32.1636 25.9829 31.8352 25.9829C31.5068 25.9829 31.2403 26.2494 31.2403 26.5778ZM19.9375 21.8187C19.6091 21.8187 19.3426 22.0852 19.3426 22.4136C19.3426 22.742 19.6091 23.0085 19.9375 23.0085C20.2659 23.0085 20.5324 22.742 20.5324 22.4136C20.5324 22.0852 20.2659 21.8187 19.9375 21.8187ZM19.9375 3.37733C20.2659 3.37733 20.5324 3.11082 20.5324 2.78244C20.5324 2.45407 20.2659 2.18756 19.9375 2.18756C19.6091 2.18756 19.3426 2.45407 19.3426 2.78244C19.3426 3.11082 19.6091 3.37733 19.9375 3.37733ZM10.4194 36.5242H29.4557V35.6676H10.4194V36.5242ZM36.9904 21.9829C36.9238 22.1423 36.768 22.247 36.5943 22.247H34.643V30.9073H36.5943V31.7652H29.884V33.2869H34.2147V34.1447H5.66032V33.2881H9.99107V31.7652H3.28078V30.9085H5.232V22.247H3.28078C3.10708 22.247 2.95122 22.1423 2.88459 21.9817C2.81797 21.8211 2.85485 21.6379 2.97739 21.5141L5.232 19.2607V17.0596C5.232 15.5118 6.49197 14.2518 8.03985 14.2518C9.58774 14.2518 10.8477 15.5118 10.8477 17.0596V19.0109H12.7989C12.9726 19.0109 13.1285 19.1144 13.1951 19.275C13.2617 19.4344 13.2249 19.6188 13.1023 19.7414L11.4533 21.3904H14.7501V17.2369L12.4955 14.9823C12.373 14.8598 12.3361 14.6754 12.4027 14.5159C12.4694 14.3565 12.6252 14.2518 12.7989 14.2518H14.7501V12.3006C14.7501 10.0079 16.254 8.08167 18.3194 7.39755V6.35175C18.3194 5.45942 19.0452 4.73366 19.9375 4.73366C20.8298 4.73366 21.5556 5.45942 21.5556 6.35175V7.39755C23.621 8.08167 25.1249 10.0091 25.1249 12.3006V14.2518H27.0761C27.2498 14.2518 27.4057 14.3553 27.4723 14.5159C27.5389 14.6754 27.5009 14.8598 27.3795 14.9823L25.1249 17.2369V21.3904H28.4217L26.7727 19.7426C26.6502 19.62 26.6133 19.4356 26.6799 19.2762C26.7466 19.1156 26.9036 19.0121 27.0761 19.0121H29.0273V17.0596C29.0273 15.5118 30.2873 14.2518 31.8352 14.2518C33.3831 14.2518 34.643 15.5118 34.643 17.0596V19.2619L36.8976 21.5153C37.019 21.6391 37.0571 21.8223 36.9904 21.9829ZM29.884 19.0109H33.7852V17.0596C33.7852 15.9841 32.9107 15.1084 31.834 15.1084C30.7573 15.1084 29.8828 15.9841 29.8828 17.0596L29.884 19.0109ZM10.8477 24.6266V30.9073H12.3706V24.6266H10.8477ZM13.2272 30.9085H14.7501V24.6266H13.2272V30.9085ZM15.6068 24.6266V30.9073H17.1297V24.6266H15.6068ZM17.9863 23.7699H21.8887V21.9972L19.9375 20.0448L17.9863 21.996V23.7699ZM17.9863 24.6266V30.9073H21.8887V24.6266H17.9863ZM22.7454 30.9085H24.2671V24.6266H22.7454V30.9085ZM13.2272 31.7652V33.2869H14.7501V31.7652H13.2272ZM15.6068 33.2881H17.1297V31.7652H15.6068V33.2881ZM17.9863 33.2881H21.8887V31.7652H17.9863V33.2881ZM22.7454 33.2881H24.2671V31.7652H22.7454V33.2881ZM25.1249 33.2881H26.6466V31.7652H25.1249V33.2881ZM26.6478 30.9085V24.6266H25.1249V30.9073L26.6478 30.9085ZM27.5044 30.9085H29.0261V24.6266H27.5044V30.9085ZM30.8013 23.7699L29.2784 22.2482H22.7466V23.7699H30.8013ZM19.1761 7.19053C19.4259 7.15365 19.677 7.1132 19.9375 7.1132C20.1981 7.1132 20.4491 7.15246 20.699 7.19053V6.35175C20.699 5.93176 20.3575 5.59029 19.9375 5.59029C19.5175 5.59029 19.1761 5.93176 19.1761 6.35175V7.19053ZM15.6068 12.3006V14.2518H18.3194V11.1108C18.3194 10.2185 19.0452 9.49273 19.9375 9.49273C20.8298 9.49273 21.5556 10.2185 21.5556 11.1108V14.2518H24.2671V12.3006C24.2671 9.91272 22.3242 7.96983 19.9363 7.96983C17.5497 7.96983 15.6068 9.91272 15.6068 12.3006ZM20.699 14.2518V11.1108C20.699 10.6908 20.3575 10.3494 19.9375 10.3494C19.5175 10.3494 19.1761 10.6908 19.1761 11.1108V14.2518H20.699ZM13.8328 15.1084L15.3557 16.6313H24.5193L26.0422 15.1084H24.6966H15.1785H13.8328ZM15.6068 21.3904H17.3807L19.6353 19.137C19.8031 18.9692 20.0732 18.9692 20.2409 19.137L22.4955 21.3904H24.2683V17.488H15.6068V21.3904ZM10.5967 22.247L9.07376 23.7687H17.1297V22.247H10.5967ZM6.08863 17.0596V19.0109H9.99107V17.0596C9.99107 15.9841 9.1154 15.1084 8.03985 15.1084C6.9643 15.1084 6.08863 15.9841 6.08863 17.0596ZM4.31469 21.3904H10.2421L11.765 19.8675H5.83759L4.31469 21.3904ZM9.99107 30.9085V24.6266H8.03985C7.86615 24.6266 7.71029 24.5219 7.64366 24.3612C7.57703 24.2006 7.61392 24.0174 7.73646 23.8937L9.38429 22.2458H6.08863V30.9062H9.99107V30.9085ZM10.8477 33.2881H12.3706V31.7652H10.8477V33.2881ZM29.0273 31.7652H27.5044V33.2869H29.0261L29.0273 31.7652ZM33.7864 22.247H30.4896L32.1386 23.8949C32.2611 24.0186 32.298 24.2018 32.2314 24.3624C32.1648 24.5231 32.0089 24.6266 31.8352 24.6266H29.884V30.9073H33.7852L33.7864 22.247ZM35.5603 21.3904L34.0374 19.8675H28.1112L29.6341 21.3904H35.5603Z" fill="black"/>
</g>
<defs>
<clipPath id="clip0_117_748">
<rect width="38.0725" height="38.0725" fill="white" transform="translate(0.901367 0.402954)"/>
</clipPath>
</defs>
</svg>
