<svg width="13" height="14" viewBox="0 0 13 14" fill="none" xmlns="http://www.w3.org/2000/svg">
<g clip-path="url(#clip0_527_735)">
<path d="M11.911 10.4207L10.4714 9.03026C10.3237 8.8744 10.1432 8.79647 9.92995 8.79647C9.71667 8.79647 9.5321 8.8744 9.37624 9.03026L8.29343 10.1131C8.17038 10.2361 8.02067 10.2976 7.84431 10.2976C7.66794 10.2976 7.51823 10.2361 7.39519 10.1131L3.40847 5.9787C3.29362 5.86385 3.23415 5.7244 3.23005 5.56034C3.22595 5.39628 3.28132 5.25272 3.39616 5.12967L4.38054 4.02225C4.52819 3.8746 4.60202 3.69413 4.60202 3.48085C4.60202 3.26756 4.52819 3.0871 4.38054 2.93944L3.00241 1.48749C2.85476 1.33983 2.67429 1.266 2.46101 1.266C2.24773 1.266 2.06316 1.33983 1.9073 1.48749L0.701436 2.69335C0.520967 2.87382 0.383565 3.08094 0.289229 3.31473C0.194893 3.54852 0.16003 3.78846 0.184639 4.03456C0.29128 5.10096 0.611202 6.16737 1.14441 7.23378C1.67761 8.30018 2.36462 9.2661 3.20544 10.1315C4.04626 10.997 5.01628 11.7127 6.1155 12.2787C7.21472 12.8447 8.38366 13.1687 9.62233 13.2508C9.7946 13.259 9.95661 13.2303 10.1084 13.1646C10.2601 13.099 10.3975 13.0088 10.5206 12.8939L11.911 11.5035C12.0587 11.3558 12.1325 11.1754 12.1325 10.9621C12.1325 10.7488 12.0587 10.5683 11.911 10.4207Z" fill="#393939"/>
</g>
<defs>
<clipPath id="clip0_527_735">
<rect width="12.6" height="12.6" fill="white" transform="matrix(1 0 0 -1 0 13.3)"/>
</clipPath>
</defs>
</svg>
