<svg width="12" height="14" viewBox="0 0 12 14" fill="none" xmlns="http://www.w3.org/2000/svg">
<g clip-path="url(#clip0_527_737)">
<path d="M11.0296 12.0941C11.0132 11.684 10.8819 11.321 10.6358 11.0052C10.3897 10.6893 10.0698 10.474 9.67607 10.3592L8.15029 9.9162C7.74834 9.79315 7.33818 9.70292 6.91982 9.6455C6.50967 9.58807 6.09541 9.55936 5.67705 9.55936C5.25869 9.55936 4.84033 9.58807 4.42197 9.6455C4.01182 9.70292 3.60576 9.79315 3.20381 9.9162L1.66572 10.3592C1.28018 10.474 0.962305 10.6893 0.712109 11.0052C0.461914 11.321 0.328613 11.6799 0.312207 12.0818C0.304004 12.3279 0.297852 12.5699 0.29375 12.8078C0.289648 13.0457 0.287598 13.2508 0.287598 13.423H11.0665C11.0665 13.2672 11.0624 13.0682 11.0542 12.8263C11.046 12.5843 11.0378 12.3402 11.0296 12.0941ZM5.67705 7.65214C6.0626 7.65214 6.43994 7.5619 6.80908 7.38143C7.17822 7.20096 7.50635 6.95282 7.79346 6.637C8.08057 6.32118 8.31435 5.95409 8.49482 5.53573C8.66709 5.11737 8.75322 4.6662 8.75322 4.18221C8.75322 3.69823 8.66709 3.26757 8.49482 2.89022C8.31435 2.50467 8.08057 2.18065 7.79346 1.91815C7.50635 1.65565 7.17822 1.45467 6.80908 1.31522C6.43994 1.17577 6.0626 1.10604 5.67705 1.10604C5.2915 1.10604 4.91416 1.17577 4.54502 1.31522C4.17588 1.45467 3.84775 1.65565 3.56064 1.91815C3.27354 2.18065 3.03975 2.50467 2.85928 2.89022C2.67881 3.26757 2.58857 3.69823 2.58857 4.18221C2.58857 4.6662 2.67881 5.11737 2.85928 5.53573C3.03975 5.95409 3.27354 6.32118 3.56064 6.637C3.84775 6.95282 4.17588 7.20096 4.54502 7.38143C4.91416 7.5619 5.2915 7.65214 5.67705 7.65214Z" fill="#393939"/>
</g>
<defs>
<clipPath id="clip0_527_737">
<rect width="11.354" height="12.6" fill="white" transform="matrix(1 0 0 -1 0 13.3)"/>
</clipPath>
</defs>
</svg>
