<svg width="30" height="249" viewBox="0 0 30 249" fill="none" xmlns="http://www.w3.org/2000/svg">
<path d="M1.45255 0.786686C1.33474 0.536935 1.03677 0.429975 0.787018 0.547785C0.537268 0.665594 0.430307 0.963561 0.548119 1.21331L1.45255 0.786686ZM1.00032 249L5.72772 245.686L0.493686 243.249L1.00032 249ZM0.548119 1.21331C0.961176 2.08898 1.36999 2.96704 1.77452 3.84747L2.6832 3.42995C2.27726 2.54648 1.86703 1.66538 1.45255 0.786686L0.548119 1.21331ZM4.14787 9.15277C4.92051 10.9276 5.67594 12.7116 6.41395 14.5047L7.33868 14.1241C6.59812 12.3248 5.84007 10.5346 5.06475 8.75362L4.14787 9.15277ZM8.57184 19.9013C9.2723 21.7055 9.95525 23.5185 10.6205 25.34L11.5598 24.997C10.8923 23.1692 10.2069 21.3499 9.50405 19.5394L8.57184 19.9013ZM12.5592 30.8193C13.1863 32.65 13.7956 34.489 14.3869 36.3361L15.3393 36.0312C14.7459 34.1777 14.1345 32.3323 13.5053 30.4952L12.5592 30.8193ZM16.1032 41.8892C16.6558 43.7435 17.1905 45.6055 17.7069 47.475L18.6708 47.2088C18.1526 45.3327 17.6161 43.4643 17.0615 41.6036L16.1032 41.8892ZM19.198 53.0931C19.6753 54.9678 20.1345 56.8498 20.5752 58.7388L21.549 58.5116C21.1068 56.616 20.6461 54.7275 20.167 52.8464L19.198 53.0931ZM21.8388 64.4127C22.2402 66.3047 22.6232 68.2035 22.9876 70.109L23.9698 69.9212C23.6041 68.0091 23.2198 66.1037 22.817 64.2051L21.8388 64.4127ZM24.0219 75.8288C24.3469 77.7353 24.6534 79.6481 24.9411 81.5671L25.93 81.4188C25.6413 79.4933 25.3338 77.5738 25.0077 75.6608L24.0219 75.8288ZM25.7452 87.3234C25.9935 89.2413 26.2232 91.1651 26.434 93.0945L27.4281 92.9859C27.2166 91.0499 26.9861 89.1195 26.7369 87.195L25.7452 87.3234ZM27.0075 98.8778C27.1792 100.804 27.332 102.736 27.4659 104.673L28.4635 104.604C28.3292 102.66 28.1758 100.722 28.0035 98.7891L27.0075 98.8778ZM27.8091 110.474C27.9043 112.405 27.9805 114.341 28.0377 116.282L29.0373 116.253C28.9799 114.305 28.9034 112.362 28.8079 110.424L27.8091 110.474ZM28.1518 122.093C28.1613 123.061 28.166 124.03 28.166 125L29.166 125C29.166 124.026 29.1612 123.054 29.1517 122.083L28.1518 122.093ZM28.166 125C28.166 125.97 28.1613 126.939 28.1518 127.908L29.1517 127.917C29.1612 126.946 29.166 125.974 29.166 125L28.166 125ZM28.0377 133.718C27.9805 135.659 27.9043 137.595 27.8091 139.526L28.8079 139.576C28.9034 137.638 28.9799 135.695 29.0373 133.747L28.0377 133.718ZM27.4659 145.327C27.332 147.264 27.1792 149.196 27.0075 151.122L28.0035 151.211C28.1758 149.278 28.3292 147.34 28.4635 145.396L27.4659 145.327ZM26.434 156.906C26.2232 158.835 25.9935 160.759 25.7452 162.677L26.7369 162.805C26.9861 160.881 27.2166 158.95 27.4281 157.014L26.434 156.906ZM24.9411 168.433C24.6534 170.352 24.3469 172.265 24.0219 174.171L25.0077 174.339C25.3338 172.426 25.6413 170.507 25.93 168.581L24.9411 168.433ZM22.9876 179.891C22.6232 181.796 22.2402 183.695 21.8388 185.587L22.817 185.795C23.2198 183.896 23.6041 181.991 23.9698 180.079L22.9876 179.891ZM20.5752 191.261C20.1345 193.15 19.6753 195.032 19.198 196.907L20.167 197.154C20.6461 195.272 21.1068 193.384 21.549 191.488L20.5752 191.261ZM17.7069 202.525C17.1905 204.395 16.6558 206.257 16.1032 208.111L17.0615 208.396C17.6161 206.536 18.1526 204.667 18.6708 202.791L17.7069 202.525ZM14.3869 213.664C13.7956 215.511 13.1863 217.35 12.5592 219.181L13.5052 219.505C14.1345 217.668 14.7459 215.822 15.3393 213.969L14.3869 213.664ZM10.6205 224.66C9.95524 226.481 9.27228 228.294 8.57182 230.099L9.50403 230.461C10.2069 228.65 10.8922 226.831 11.5598 225.003L10.6205 224.66ZM6.41393 235.495C5.67592 237.288 4.92049 239.072 4.14785 240.847L5.06473 241.246C5.84005 239.465 6.5981 237.675 7.33866 235.876L6.41393 235.495ZM1.45255 0.786686C1.33474 0.536935 1.03677 0.429975 0.787018 0.547785C0.537268 0.665594 0.430307 0.963561 0.548119 1.21331L1.45255 0.786686ZM1.00032 249L5.72772 245.686L0.493686 243.249L1.00032 249ZM0.548119 1.21331C0.961176 2.08898 1.36999 2.96704 1.77452 3.84747L2.6832 3.42995C2.27726 2.54648 1.86703 1.66538 1.45255 0.786686L0.548119 1.21331ZM4.14787 9.15277C4.92051 10.9276 5.67594 12.7116 6.41395 14.5047L7.33868 14.1241C6.59812 12.3248 5.84007 10.5346 5.06475 8.75362L4.14787 9.15277ZM8.57184 19.9013C9.2723 21.7055 9.95525 23.5185 10.6205 25.34L11.5598 24.997C10.8923 23.1692 10.2069 21.3499 9.50405 19.5394L8.57184 19.9013ZM12.5592 30.8193C13.1863 32.65 13.7956 34.489 14.3869 36.3361L15.3393 36.0312C14.7459 34.1777 14.1345 32.3323 13.5053 30.4952L12.5592 30.8193ZM16.1032 41.8892C16.6558 43.7435 17.1905 45.6055 17.7069 47.475L18.6708 47.2088C18.1526 45.3327 17.6161 43.4643 17.0615 41.6036L16.1032 41.8892ZM19.198 53.0931C19.6753 54.9678 20.1345 56.8498 20.5752 58.7388L21.549 58.5116C21.1068 56.616 20.6461 54.7275 20.167 52.8464L19.198 53.0931ZM21.8388 64.4127C22.2402 66.3047 22.6232 68.2035 22.9876 70.109L23.9698 69.9212C23.6041 68.0091 23.2198 66.1037 22.817 64.2051L21.8388 64.4127ZM24.0219 75.8288C24.3469 77.7353 24.6534 79.6481 24.9411 81.5671L25.93 81.4188C25.6413 79.4933 25.3338 77.5738 25.0077 75.6608L24.0219 75.8288ZM25.7452 87.3234C25.9935 89.2413 26.2232 91.1651 26.434 93.0945L27.4281 92.9859C27.2166 91.0499 26.9861 89.1195 26.7369 87.195L25.7452 87.3234ZM27.0075 98.8778C27.1792 100.804 27.332 102.736 27.4659 104.673L28.4635 104.604C28.3292 102.66 28.1758 100.722 28.0035 98.7891L27.0075 98.8778ZM27.8091 110.474C27.9043 112.405 27.9805 114.341 28.0377 116.282L29.0373 116.253C28.9799 114.305 28.9034 112.362 28.8079 110.424L27.8091 110.474ZM28.1518 122.093C28.1613 123.061 28.166 124.03 28.166 125L29.166 125C29.166 124.026 29.1612 123.054 29.1517 122.083L28.1518 122.093ZM28.166 125C28.166 125.97 28.1613 126.939 28.1518 127.908L29.1517 127.917C29.1612 126.946 29.166 125.974 29.166 125L28.166 125ZM28.0377 133.718C27.9805 135.659 27.9043 137.595 27.8091 139.526L28.8079 139.576C28.9034 137.638 28.9799 135.695 29.0373 133.747L28.0377 133.718ZM27.4659 145.327C27.332 147.264 27.1792 149.196 27.0075 151.122L28.0035 151.211C28.1758 149.278 28.3292 147.34 28.4635 145.396L27.4659 145.327ZM26.434 156.906C26.2232 158.835 25.9935 160.759 25.7452 162.677L26.7369 162.805C26.9861 160.881 27.2166 158.95 27.4281 157.014L26.434 156.906ZM24.9411 168.433C24.6534 170.352 24.3469 172.265 24.0219 174.171L25.0077 174.339C25.3338 172.426 25.6413 170.507 25.93 168.581L24.9411 168.433ZM22.9876 179.891C22.6232 181.796 22.2402 183.695 21.8388 185.587L22.817 185.795C23.2198 183.896 23.6041 181.991 23.9698 180.079L22.9876 179.891ZM20.5752 191.261C20.1345 193.15 19.6753 195.032 19.198 196.907L20.167 197.154C20.6461 195.272 21.1068 193.384 21.549 191.488L20.5752 191.261ZM17.7069 202.525C17.1905 204.395 16.6558 206.257 16.1032 208.111L17.0615 208.396C17.6161 206.536 18.1526 204.667 18.6708 202.791L17.7069 202.525ZM14.3869 213.664C13.7956 215.511 13.1863 217.35 12.5592 219.181L13.5052 219.505C14.1345 217.668 14.7459 215.822 15.3393 213.969L14.3869 213.664ZM10.6205 224.66C9.95524 226.481 9.27228 228.294 8.57182 230.099L9.50403 230.461C10.2069 228.65 10.8922 226.831 11.5598 225.003L10.6205 224.66ZM6.41393 235.495C5.67592 237.288 4.92049 239.072 4.14785 240.847L5.06473 241.246C5.84005 239.465 6.5981 237.675 7.33866 235.876L6.41393 235.495Z" fill="#AFAFAF"/>
</svg>
