<svg width="30" height="249" viewBox="0 0 30 249" fill="none" xmlns="http://www.w3.org/2000/svg">
<path d="M28.2135 0.786688C28.3313 0.536937 28.6292 0.429978 28.879 0.547787C29.1287 0.665597 29.2357 0.963564 29.1179 1.21331L28.2135 0.786688ZM28.6657 249L23.9383 245.686L29.1723 243.249L28.6657 249ZM29.1179 1.21331C28.7048 2.08898 28.296 2.96704 27.8915 3.84747L26.9828 3.42995C27.3888 2.54648 27.799 1.66538 28.2135 0.786688L29.1179 1.21331ZM25.5181 9.15277C24.7455 10.9276 23.9901 12.7116 23.2521 14.5047L22.3273 14.1241C23.0679 12.3248 23.8259 10.5346 24.6013 8.75362L25.5181 9.15277ZM21.0942 19.9013C20.3937 21.7055 19.7108 23.5185 19.0455 25.34L18.1062 24.997C18.7737 23.1692 19.4591 21.3499 20.162 19.5394L21.0942 19.9013ZM17.1068 30.8193C16.4797 32.65 15.8704 34.489 15.2791 36.3361L14.3267 36.0312C14.9201 34.1777 15.5315 32.3323 16.1608 30.4952L17.1068 30.8193ZM13.5628 41.8892C13.0102 43.7435 12.4755 45.6055 11.9591 47.475L10.9952 47.2088C11.5134 45.3327 12.0499 43.4643 12.6045 41.6036L13.5628 41.8892ZM10.468 53.0931C9.99067 54.9678 9.53154 56.8498 9.09083 58.7388L8.11698 58.5116C8.55921 56.616 9.01994 54.7275 9.49897 52.8464L10.468 53.0931ZM7.82724 64.4127C7.42583 66.3047 7.04283 68.2035 6.67845 70.109L5.69625 69.9212C6.06189 68.0091 6.44621 66.1037 6.84902 64.2051L7.82724 64.4127ZM5.64409 75.8288C5.31907 77.7353 5.01262 79.6481 4.72494 81.5671L3.73599 81.4188C4.02466 79.4933 4.33217 77.5738 4.65832 75.6608L5.64409 75.8288ZM3.92083 87.3234C3.67246 89.2413 3.44279 91.1651 3.23202 93.0945L2.23793 92.9859C2.44943 91.0499 2.67989 89.1195 2.92911 87.195L3.92083 87.3234ZM2.65851 98.8778C2.48684 100.804 2.33398 102.736 2.2001 104.673L1.20248 104.604C1.33682 102.66 1.4902 100.722 1.66246 98.7891L2.65851 98.8778ZM1.85686 110.474C1.76175 112.405 1.68551 114.341 1.6283 116.282L0.628733 116.253C0.686134 114.305 0.762639 112.362 0.85807 110.424L1.85686 110.474ZM1.51424 122.093C1.50475 123.061 1.49999 124.03 1.49999 125L0.499995 125C0.499995 124.026 0.504767 123.054 0.514291 122.083L1.51424 122.093ZM1.49999 125C1.49999 125.97 1.50475 126.939 1.51424 127.908L0.514291 127.917C0.504767 126.946 0.499995 125.974 0.499995 125L1.49999 125ZM1.6283 133.718C1.68551 135.659 1.76175 137.595 1.85686 139.526L0.85807 139.576C0.762639 137.638 0.686134 135.695 0.628733 133.747L1.6283 133.718ZM2.2001 145.327C2.33398 147.264 2.48684 149.196 2.65851 151.122L1.66246 151.211C1.4902 149.278 1.33682 147.34 1.20248 145.396L2.2001 145.327ZM3.23202 156.906C3.44279 158.835 3.67246 160.759 3.92083 162.677L2.92911 162.805C2.67989 160.881 2.44943 158.95 2.23793 157.014L3.23202 156.906ZM4.72494 168.433C5.01262 170.352 5.31907 172.265 5.64409 174.171L4.65831 174.339C4.33217 172.426 4.02466 170.507 3.73599 168.581L4.72494 168.433ZM6.67845 179.891C7.04283 181.796 7.42583 183.695 7.82724 185.587L6.84901 185.795C6.44621 183.896 6.06189 181.991 5.69624 180.079L6.67845 179.891ZM9.09082 191.261C9.53153 193.15 9.99067 195.032 10.468 196.907L9.49897 197.154C9.01994 195.272 8.55921 193.384 8.11697 191.488L9.09082 191.261ZM11.9591 202.525C12.4755 204.395 13.0102 206.257 13.5628 208.111L12.6045 208.396C12.0499 206.536 11.5134 204.667 10.9952 202.791L11.9591 202.525ZM15.2791 213.664C15.8704 215.511 16.4797 217.35 17.1068 219.181L16.1608 219.505C15.5315 217.668 14.9201 215.822 14.3267 213.969L15.2791 213.664ZM19.0455 224.66C19.7108 226.481 20.3937 228.294 21.0942 230.099L20.162 230.461C19.4591 228.65 18.7737 226.831 18.1062 225.003L19.0455 224.66ZM23.2521 235.495C23.9901 237.288 24.7455 239.072 25.5181 240.847L24.6013 241.246C23.8259 239.465 23.0679 237.675 22.3273 235.876L23.2521 235.495ZM28.2135 0.786688C28.3313 0.536937 28.6292 0.429978 28.879 0.547787C29.1287 0.665597 29.2357 0.963564 29.1179 1.21331L28.2135 0.786688ZM28.6657 249L23.9383 245.686L29.1723 243.249L28.6657 249ZM29.1179 1.21331C28.7048 2.08898 28.296 2.96704 27.8915 3.84747L26.9828 3.42995C27.3888 2.54648 27.799 1.66538 28.2135 0.786688L29.1179 1.21331ZM25.5181 9.15277C24.7455 10.9276 23.9901 12.7116 23.2521 14.5047L22.3273 14.1241C23.0679 12.3248 23.8259 10.5346 24.6013 8.75362L25.5181 9.15277ZM21.0942 19.9013C20.3937 21.7055 19.7108 23.5185 19.0455 25.34L18.1062 24.997C18.7737 23.1692 19.4591 21.3499 20.162 19.5394L21.0942 19.9013ZM17.1068 30.8193C16.4797 32.65 15.8704 34.489 15.2791 36.3361L14.3267 36.0312C14.9201 34.1777 15.5315 32.3323 16.1608 30.4952L17.1068 30.8193ZM13.5628 41.8892C13.0102 43.7435 12.4755 45.6055 11.9591 47.475L10.9952 47.2088C11.5134 45.3327 12.0499 43.4643 12.6045 41.6036L13.5628 41.8892ZM10.468 53.0931C9.99067 54.9678 9.53154 56.8498 9.09083 58.7388L8.11698 58.5116C8.55921 56.616 9.01994 54.7275 9.49897 52.8464L10.468 53.0931ZM7.82724 64.4127C7.42583 66.3047 7.04283 68.2035 6.67845 70.109L5.69625 69.9212C6.06189 68.0091 6.44621 66.1037 6.84902 64.2051L7.82724 64.4127ZM5.64409 75.8288C5.31907 77.7353 5.01262 79.6481 4.72494 81.5671L3.73599 81.4188C4.02466 79.4933 4.33217 77.5738 4.65832 75.6608L5.64409 75.8288ZM3.92083 87.3234C3.67246 89.2413 3.44279 91.1651 3.23202 93.0945L2.23793 92.9859C2.44943 91.0499 2.67989 89.1195 2.92911 87.195L3.92083 87.3234ZM2.65851 98.8778C2.48684 100.804 2.33398 102.736 2.2001 104.673L1.20248 104.604C1.33682 102.66 1.4902 100.722 1.66246 98.7891L2.65851 98.8778ZM1.85686 110.474C1.76175 112.405 1.68551 114.341 1.6283 116.282L0.628733 116.253C0.686134 114.305 0.762639 112.362 0.85807 110.424L1.85686 110.474ZM1.51424 122.093C1.50475 123.061 1.49999 124.03 1.49999 125L0.499995 125C0.499995 124.026 0.504767 123.054 0.514291 122.083L1.51424 122.093ZM1.49999 125C1.49999 125.97 1.50475 126.939 1.51424 127.908L0.514291 127.917C0.504767 126.946 0.499995 125.974 0.499995 125L1.49999 125ZM1.6283 133.718C1.68551 135.659 1.76175 137.595 1.85686 139.526L0.85807 139.576C0.762639 137.638 0.686134 135.695 0.628733 133.747L1.6283 133.718ZM2.2001 145.327C2.33398 147.264 2.48684 149.196 2.65851 151.122L1.66246 151.211C1.4902 149.278 1.33682 147.34 1.20248 145.396L2.2001 145.327ZM3.23202 156.906C3.44279 158.835 3.67246 160.759 3.92083 162.677L2.92911 162.805C2.67989 160.881 2.44943 158.95 2.23793 157.014L3.23202 156.906ZM4.72494 168.433C5.01262 170.352 5.31907 172.265 5.64409 174.171L4.65831 174.339C4.33217 172.426 4.02466 170.507 3.73599 168.581L4.72494 168.433ZM6.67845 179.891C7.04283 181.796 7.42583 183.695 7.82724 185.587L6.84901 185.795C6.44621 183.896 6.06189 181.991 5.69624 180.079L6.67845 179.891ZM9.09082 191.261C9.53153 193.15 9.99067 195.032 10.468 196.907L9.49897 197.154C9.01994 195.272 8.55921 193.384 8.11697 191.488L9.09082 191.261ZM11.9591 202.525C12.4755 204.395 13.0102 206.257 13.5628 208.111L12.6045 208.396C12.0499 206.536 11.5134 204.667 10.9952 202.791L11.9591 202.525ZM15.2791 213.664C15.8704 215.511 16.4797 217.35 17.1068 219.181L16.1608 219.505C15.5315 217.668 14.9201 215.822 14.3267 213.969L15.2791 213.664ZM19.0455 224.66C19.7108 226.481 20.3937 228.294 21.0942 230.099L20.162 230.461C19.4591 228.65 18.7737 226.831 18.1062 225.003L19.0455 224.66ZM23.2521 235.495C23.9901 237.288 24.7455 239.072 25.5181 240.847L24.6013 241.246C23.8259 239.465 23.0679 237.675 22.3273 235.876L23.2521 235.495Z" fill="#AFAFAF"/>
</svg>
