<svg width="17" height="17" viewBox="0 0 17 17" fill="none" xmlns="http://www.w3.org/2000/svg">
<g clip-path="url(#clip0_387_817)">
<path d="M12.6347 2.79346H3.36442C2.83757 2.79346 2.3323 3.00275 1.95976 3.37529C1.58722 3.74782 1.37793 4.25309 1.37793 4.77994V11.4016C1.37793 11.9284 1.58722 12.4337 1.95976 12.8062C2.3323 13.1788 2.83757 13.3881 3.36442 13.3881H12.6347C13.1615 13.3881 13.6668 13.1788 14.0393 12.8062C14.4119 12.4337 14.6212 11.9284 14.6212 11.4016V4.77994C14.6212 4.25309 14.4119 3.74782 14.0393 3.37529C13.6668 3.00275 13.1615 2.79346 12.6347 2.79346ZM12.6347 4.11778L8.33063 7.07765C8.22997 7.13576 8.11579 7.16636 7.99955 7.16636C7.88332 7.16636 7.76913 7.13576 7.66847 7.07765L3.36442 4.11778H12.6347Z" fill="black"/>
</g>
<defs>
<clipPath id="clip0_387_817">
<rect width="15.8919" height="15.8919" fill="white" transform="translate(0.384766 0.337402)"/>
</clipPath>
</defs>
</svg>
