<svg width="24" height="25" viewBox="0 0 24 25" fill="none" xmlns="http://www.w3.org/2000/svg">
<g clip-path="url(#clip0_117_2216)">
<path d="M19 4.37793H5C4.20435 4.37793 3.44129 4.694 2.87868 5.25661C2.31607 5.81922 2 6.58228 2 7.37793V17.3779C2 18.1736 2.31607 18.9366 2.87868 19.4993C3.44129 20.0619 4.20435 20.3779 5 20.3779H19C19.7956 20.3779 20.5587 20.0619 21.1213 19.4993C21.6839 18.9366 22 18.1736 22 17.3779V7.37793C22 6.58228 21.6839 5.81922 21.1213 5.25661C20.5587 4.694 19.7956 4.37793 19 4.37793ZM19 6.37793L12.5 10.8479C12.348 10.9357 12.1755 10.9819 12 10.9819C11.8245 10.9819 11.652 10.9357 11.5 10.8479L5 6.37793H19Z" fill="#C2C2C2"/>
</g>
<defs>
<clipPath id="clip0_117_2216">
<rect width="24" height="24" fill="white" transform="translate(0 0.586914)"/>
</clipPath>
</defs>
</svg>
