<svg width="24" height="25" viewBox="0 0 24 25" fill="none" xmlns="http://www.w3.org/2000/svg">
<path d="M7.97804 4.37793C7.61297 4.37791 7.25214 4.45618 6.91989 4.60747C6.58764 4.75876 6.2917 4.97954 6.05204 5.25493C4.23304 7.07793 3.69904 9.12893 4.15304 11.1919C4.59304 13.1869 5.93104 15.0849 7.60904 16.7639C9.28904 18.4429 11.186 19.7819 13.179 20.2229C15.241 20.6789 17.294 20.1499 19.119 18.3379C19.3956 18.0981 19.6174 17.8016 19.7695 17.4686C19.9215 17.1355 20.0002 16.7737 20.0003 16.4077C20.0004 16.0416 19.9219 15.6797 19.77 15.3466C19.6181 15.0135 19.3965 14.7169 19.12 14.4769L17.91 13.2669C17.4058 12.7629 16.722 12.4797 16.009 12.4797C15.2961 12.4797 14.6123 12.7629 14.108 13.2669L13.491 13.8849C13.4162 13.9598 13.3273 14.0192 13.2295 14.0597C13.1317 14.1002 13.0269 14.1211 12.921 14.1211C12.8152 14.1211 12.7103 14.1002 12.6125 14.0597C12.5147 14.0192 12.4259 13.9598 12.351 13.8849L10.497 12.0299C10.3461 11.8786 10.2613 11.6736 10.2613 11.4599C10.2613 11.2462 10.3461 11.0412 10.497 10.8899L11.115 10.2699C11.6186 9.76525 11.9015 9.0814 11.9015 8.36843C11.9015 7.65546 11.6186 6.97161 11.115 6.46693L9.90504 5.25593C9.66527 4.98033 9.3692 4.75935 9.03678 4.60789C8.70436 4.45644 8.34333 4.37802 7.97804 4.37793Z" fill="#C2C2C2"/>
</svg>
