<svg width="16" height="17" viewBox="0 0 16 17" fill="none" xmlns="http://www.w3.org/2000/svg">
<path d="M4.95832 2.79346C4.71659 2.79344 4.47766 2.84527 4.25766 2.94545C4.03765 3.04563 3.8417 3.19182 3.683 3.37417C2.47853 4.58129 2.12493 5.93939 2.42555 7.30543C2.71691 8.62644 3.60288 9.88323 4.71399 10.995C5.82642 12.1068 7.08254 12.9934 8.40223 13.2854C9.76761 13.5874 11.127 13.2371 12.3355 12.0372C12.5186 11.8784 12.6655 11.6821 12.7662 11.4616C12.8668 11.2411 12.919 11.0015 12.919 10.7591C12.9191 10.5167 12.8671 10.2771 12.7665 10.0565C12.666 9.83595 12.5192 9.63956 12.3361 9.48063L11.5349 8.67942C11.201 8.34566 10.7482 8.15818 10.2761 8.15818C9.80405 8.15818 9.35127 8.34566 9.01738 8.67942L8.60882 9.08863C8.55926 9.13821 8.50042 9.17753 8.43566 9.20436C8.3709 9.23119 8.30149 9.245 8.23139 9.245C8.16129 9.245 8.09188 9.23119 8.02712 9.20436C7.96236 9.17753 7.90352 9.13821 7.85396 9.08863L6.62631 7.86032C6.52636 7.76014 6.47022 7.62441 6.47022 7.48289C6.47022 7.34137 6.52636 7.20564 6.62631 7.10546L7.03553 6.69492C7.369 6.36074 7.55628 5.90792 7.55628 5.43581C7.55628 4.96371 7.369 4.5109 7.03553 4.17671L6.23431 3.37484C6.07555 3.19235 5.8795 3.04602 5.65938 2.94573C5.43927 2.84544 5.20021 2.79352 4.95832 2.79346Z" fill="black"/>
</svg>
