<svg width="40" height="37" viewBox="0 0 40 37" fill="none" xmlns="http://www.w3.org/2000/svg">
<rect width="26.7607" height="26.7607" rx="4.53869" transform="matrix(0.733594 0.679587 -0.733594 0.679587 19.7119 0)" fill="#EDE7F6"/>
<path fill-rule="evenodd" clip-rule="evenodd" d="M23.7259 16.0928L20.0421 18.6886C19.9897 18.6846 19.9374 18.6805 19.885 18.6805C19.1124 18.6805 18.4883 19.2587 18.4883 19.9744C18.4883 20.6901 19.1124 21.2683 19.885 21.2683C20.6575 21.2683 21.2817 20.6901 21.2817 19.9744C21.2817 19.9259 21.2773 19.8774 21.273 19.8289L24.0751 16.4162L23.7259 16.0928Z" fill="#651FFF"/>
<path fill-rule="evenodd" clip-rule="evenodd" d="M19.8844 9.62305C14.4852 9.62305 10.1074 13.6786 10.1074 18.6802C10.1074 20.0711 10.4479 21.3852 11.0502 22.5619H12.6259C11.9537 21.4863 11.5696 20.2733 11.5129 19.0037H12.9008V18.3567H11.5129C11.5652 17.1923 11.8926 16.0722 12.4644 15.0654L13.6647 15.7083L14.0138 15.1463L12.8135 14.5075C13.1365 14.0384 13.5206 13.5936 13.9571 13.1893C14.4023 12.7809 14.8868 12.4211 15.4018 12.1178L16.0914 13.2217L16.6981 12.8982L16.0085 11.7943C17.091 11.2687 18.2869 10.9735 19.5352 10.925V12.2108H20.2335V10.925C21.4819 10.9735 22.6778 11.2727 23.7602 11.7943L23.075 12.8982L23.6817 13.2217L24.3713 12.1178C24.8863 12.4211 25.3708 12.7809 25.816 13.1893C26.2525 13.5936 26.6322 14.0344 26.9596 14.5075L25.7636 15.1463L26.1128 15.7083L27.3131 15.0654C27.8849 16.0722 28.2122 17.1923 28.2646 18.3567H26.8679V19.0037H28.2559C28.1991 20.2733 27.815 21.4863 27.1429 22.5619H28.7185C29.3209 21.3852 29.6613 20.0711 29.6613 18.6802C29.6613 13.6786 25.2835 9.62305 19.8844 9.62305Z" fill="#651FFF"/>
</svg>
