<svg width="89" height="64" viewBox="0 0 89 64" fill="none" xmlns="http://www.w3.org/2000/svg">
<g clip-path="url(#clip0_527_692)">
<path d="M73.3353 0.252839C73.2635 0.316049 73.2096 0.647901 73.2096 0.979753V1.58025H72.4022C71.828 1.58025 71.5947 1.64346 71.5947 1.80148C71.5947 2.07012 71.9895 2.21235 72.6713 2.21235C73.1558 2.21235 73.1917 2.24395 73.1558 2.84444C73.1379 3.1763 73.1917 3.50815 73.2455 3.57136C73.4967 3.79259 73.748 3.42914 73.748 2.82864V2.21235H74.5195C75.3808 2.21235 75.5603 2.13333 75.4167 1.80148C75.3629 1.65926 75.0399 1.58025 74.5554 1.58025H73.7659L73.8018 0.932345C73.8377 0.316049 73.6223 0.0158021 73.3353 0.252839Z" fill="black"/>
<path d="M38.4529 2.29136C37.8608 2.5126 37.7172 2.74963 38.0223 2.90766C38.112 2.95506 38.5247 2.89185 38.9553 2.76543C39.9243 2.44939 40.5344 2.57581 41.1983 3.1763C41.9878 3.91902 42.6338 4.15605 43.4951 4.04543C44.3922 3.91902 46.1148 3.08148 46.1148 2.76543C46.1148 2.43358 45.9354 2.46519 44.769 3.00247C43.3156 3.68198 42.7414 3.63457 41.6289 2.76543C40.8215 2.13334 40.6241 2.05432 39.8705 2.05432C39.4039 2.07013 38.758 2.16494 38.4529 2.29136Z" fill="black"/>
<path d="M58.9266 3.61877C57.2399 4.51951 57.9756 6.95309 59.9494 6.95309C61.5822 6.95309 62.605 5.76791 62.0308 4.53532C61.4925 3.39754 60.0929 2.98667 58.9266 3.61877ZM61.1695 4.36149C61.6899 4.94618 61.6361 5.46766 61.008 6.03655C60.5415 6.43161 60.3621 6.49482 59.8776 6.41581C58.1371 6.11556 58.3524 3.95062 60.1288 3.95062C60.6492 3.95062 60.8824 4.04544 61.1695 4.36149Z" fill="black"/>
<path d="M22.5013 10.2558C21.2811 10.9195 21.0658 12.3575 22.0706 13.2425C23.0575 14.1116 24.6545 13.9852 25.4261 12.9738C25.9285 12.3101 25.9464 11.6148 25.4799 10.9511C24.8339 10.003 23.542 9.70272 22.5013 10.2558ZM24.6724 10.9827C25.6055 11.7886 24.9416 13.2741 23.6497 13.2741C22.9319 13.2741 22.0706 12.5156 22.0706 11.8835C22.0706 10.7457 23.7573 10.161 24.6724 10.9827Z" fill="black"/>
<path d="M60.2004 11.6464C56.3964 11.8677 51.1748 12.6736 47.9629 13.5269C40.3369 15.5654 34.0746 20.2588 27.4894 28.8869C25.8027 31.0993 25.4438 31.6523 25.6591 31.763C25.8027 31.8578 26.018 31.921 26.1436 31.921C26.2692 31.921 27.1305 30.9096 28.0636 29.6612C30.6474 26.2637 32.8545 23.8459 35.5281 21.4756C40.9111 16.719 45.9353 14.3486 51.8567 13.7481C55.8222 13.3531 60.0569 14.3802 62.3716 16.3082C64.0763 17.7304 64.0763 17.6514 62.3896 19.7689C60.3799 22.2657 60.2722 22.3921 60.1646 22.1709C59.9133 21.5862 58.1369 19.8005 57.2398 19.2158C55.571 18.1254 54.0638 17.6672 51.9644 17.5723C49.8111 17.4933 48.6269 17.683 46.8863 18.4415C44.6972 19.3738 42.9029 21.1595 42.0057 23.3086C41.2341 25.0943 41.3238 27.7965 42.2031 29.598C42.7593 30.7516 43.0285 30.2933 42.5261 29.0449C41.9519 27.6701 41.8263 25.363 42.2569 24.083C43.4591 20.3852 46.994 17.9832 51.2287 17.9674C55.4992 17.9358 58.8547 20.0849 60.2902 23.7669C60.6849 24.8257 61.0797 24.9363 60.9182 23.9723C60.7926 23.2612 60.8105 23.2138 62.1204 21.6178C62.8561 20.717 63.6815 19.7057 63.9327 19.3738L64.3992 18.7417L64.6684 19.2948C65.3323 20.7012 65.5476 21.8864 65.5476 24.1778C65.5297 26.1373 65.4579 26.7062 65.0631 28.0336C64.8119 28.9027 64.6325 29.6454 64.6863 29.677C64.8658 29.8351 65.6373 29.5348 65.7271 29.282C65.7629 29.124 66.05 28.2548 66.3551 27.3383C67.5573 23.7037 68.3109 19.5635 68.4904 15.4548C68.616 12.6894 68.5442 12.4523 67.4137 11.8519C66.8934 11.5674 66.5345 11.5358 63.9686 11.5674C62.3896 11.5832 60.7029 11.6148 60.2004 11.6464ZM67.4496 16.0869C67.324 17.9516 66.8216 21.9496 66.6781 22.3605C66.6422 22.4395 66.5704 22.2341 66.4986 21.8864C66.4269 21.5388 66.0859 20.4642 65.745 19.4844L65.099 17.7146L65.8168 16.64C66.2115 16.0553 66.7498 15.1862 67.001 14.7279C67.2702 14.2538 67.5214 13.9062 67.5394 13.9378C67.5752 13.9536 67.5214 14.9333 67.4496 16.0869Z" fill="black"/>
<path d="M33.8235 12.9896C32.8725 13.4321 32.711 14.4593 33.4826 14.9965C34.6848 15.8341 36.1562 14.8069 35.5999 13.5111C35.4923 13.2741 34.631 12.8 34.3259 12.8C34.2542 12.8 34.0209 12.8948 33.8235 12.9896ZM34.8822 13.6849C35.2231 13.9852 35.2411 14.08 34.936 14.4435C34.5592 14.9017 33.8415 14.7121 33.7697 14.159C33.68 13.4795 34.3439 13.1951 34.8822 13.6849Z" fill="black"/>
<path d="M79.8668 15.7393C79.6515 15.9763 79.49 16.2765 79.49 16.4346C79.49 16.9719 80.1898 17.5407 80.8358 17.5407C81.4817 17.5407 82.1815 16.9719 82.1815 16.4346C82.1815 15.8973 81.4817 15.3284 80.8358 15.3284C80.4051 15.3284 80.136 15.439 79.8668 15.7393ZM81.3382 16.1343C81.6073 16.5136 81.3561 16.9086 80.8537 16.9086C80.3333 16.9086 80.0642 16.3872 80.4051 16.0237C80.6743 15.7393 81.087 15.7867 81.3382 16.1343Z" fill="black"/>
<path d="M49.9727 18.6627C49.7932 18.8997 49.9906 19.0262 50.3315 18.8997C50.493 18.8523 50.5648 18.7417 50.511 18.6469C50.3674 18.4415 50.1162 18.4415 49.9727 18.6627Z" fill="black"/>
<path d="M51.5518 18.5995C51.0493 18.7575 51.3723 18.9314 52.3592 19.0262C52.9155 19.0894 53.8665 19.3106 54.4586 19.5319C55.7864 20.0375 56.3427 20.1482 56.3427 19.9427C56.3427 19.4687 52.3233 18.3467 51.5518 18.5995Z" fill="black"/>
<path d="M48.8422 20.717C47.5862 21.1437 45.9174 22.5185 45.2894 23.6405C44.9485 24.2568 44.787 24.8257 44.7332 25.6474L44.6614 26.7852L45.0561 26.3111C45.8277 25.4104 46.7608 24.6677 47.2632 24.557C47.5323 24.4938 48.0707 24.5412 48.4475 24.6519C48.9858 24.8099 49.2549 24.8099 49.8112 24.6361C50.2239 24.5096 51.2646 24.4306 52.3053 24.4306C53.7946 24.4464 54.315 24.5096 55.3378 24.8573C56.4682 25.2207 56.6297 25.2365 57.0783 25.0311C57.8319 24.6993 57.8499 24.557 57.3475 23.6405C56.7194 22.5027 55.4634 21.4281 54.0997 20.8593C53.0948 20.4326 52.7898 20.3852 51.3902 20.401C50.2418 20.401 49.5241 20.4958 48.8422 20.717Z" fill="black"/>
<path d="M19.8634 23.1822C19.7917 23.2296 19.7378 23.5141 19.7378 23.7827C19.7378 24.2568 19.684 24.3042 19.0021 24.3832C18.6074 24.4306 18.2306 24.5096 18.1767 24.5412C17.9614 24.7467 18.3741 24.9679 18.9304 24.9679C19.5225 24.9679 19.5405 24.9837 19.5943 25.6316C19.6661 26.5639 20.1685 26.5797 20.2402 25.6474C20.2941 24.9837 20.2941 24.9837 21.0477 24.9363C21.9808 24.8731 21.9628 24.6044 21.0477 24.4938C20.3838 24.4148 20.3659 24.3832 20.312 23.7353C20.2582 23.1032 20.1326 22.9452 19.8634 23.1822Z" fill="black"/>
<path d="M74.2861 24.2884C74.2861 25.0311 74.7886 25.9951 75.5063 26.7378C75.9369 27.1486 76.0087 27.3383 75.8652 27.4647C75.7037 27.6069 75.7575 27.6543 76.1164 27.6543C76.3676 27.6543 76.9238 27.7649 77.3365 27.8914C78.4311 28.2232 79.0591 28.1916 79.3821 27.7807C80.2254 26.7378 78.8797 26.0109 77.2289 26.6272C76.6188 26.8484 76.565 26.8326 76.1702 26.4849C75.6319 26.0109 75.0936 25.0469 74.9321 24.2884C74.8603 23.9249 74.6988 23.7037 74.5553 23.7037C74.3579 23.7037 74.2861 23.8775 74.2861 24.2884ZM78.9515 27.2593C78.9515 27.5121 78.1799 27.5911 77.6236 27.4015C77.1392 27.2435 77.498 27.0222 78.2517 27.0222C78.7541 27.0222 78.9515 27.0854 78.9515 27.2593Z" fill="black"/>
<path d="M8.55902 26.1057C7.78745 26.7694 7.15942 27.7333 6.5314 29.2029C6.13664 30.1669 6.01104 30.3091 5.79571 30.1511C5.27535 29.7876 4.98825 29.0449 5.07797 28.3496C5.1318 27.8123 5.09591 27.7017 4.89854 27.7649C4.57555 27.8755 4.12696 28.6498 4.12696 29.0923C4.12696 29.4084 4.97031 30.2459 5.61628 30.5778C5.90337 30.72 5.86749 30.8938 5.14975 32.7901C3.96547 35.84 3.76809 36.2192 3.42717 36.1086C2.79914 35.9032 0.950955 35.84 0.57414 36.0138C-0.0359405 36.2982 0.0537772 37.0094 0.753576 37.5308C1.23805 37.8943 1.45337 37.9417 2.0814 37.8785C2.51204 37.8469 3.08624 37.6415 3.42717 37.4044L4.00136 37.0094L5.34712 37.5624C7.28503 38.3368 8.54108 38.6054 9.27676 38.3842C9.81507 38.2261 10.4072 37.7205 10.4072 37.4202C10.4072 37.3412 9.90479 37.2938 9.27676 37.2938C8.25398 37.2938 6.15458 36.9145 4.97031 36.5195L4.53967 36.3773L5.16769 35.2395C5.49067 34.6232 6.06487 33.3906 6.44168 32.5057L7.08765 30.8938L8.0566 30.7674C10.1919 30.4987 11.6633 29.0449 11.6633 27.1802C11.6633 26.0898 11.1249 25.6 9.97656 25.6C9.31265 25.6 9.06144 25.6948 8.55902 26.1057ZM10.5866 26.1531C10.7302 26.3111 10.784 26.6429 10.7122 27.1012C10.4431 28.7447 8.82817 30.4987 7.55418 30.4987C7.19531 30.4987 7.21325 30.4671 7.6439 29.4242C8.45136 27.5279 9.02555 26.5323 9.47414 26.2163C10.0124 25.8528 10.2816 25.837 10.5866 26.1531ZM2.94269 36.6617C3.21184 36.9145 2.44027 37.4518 1.81225 37.4518C1.23805 37.4518 0.430592 36.7881 0.627971 36.4879C0.789463 36.2666 2.63765 36.3931 2.94269 36.6617Z" fill="black"/>
<path d="M47.3351 25.7738C46.2764 26.3111 44.0873 29.9773 42.9928 33.0113C42.2212 35.1763 41.6649 36.0454 40.696 36.6617C39.099 37.6889 37.7532 37.5941 37.4303 36.4563C37.0893 35.2869 38.3274 33.0271 39.6911 32.3318C40.7857 31.7787 40.9651 32.2528 40.2653 33.7699C40.1218 34.0701 40.8216 34.0227 41.1625 33.7224C41.5214 33.4064 41.5214 32.5689 41.1625 32.1106C40.5524 31.3363 38.4889 31.8736 37.4303 33.0903C37.179 33.4064 36.7125 34.1017 36.4434 34.6706C35.7974 35.919 34.7567 36.9778 34.1645 36.9778C33.5365 36.9778 33.4647 36.3931 33.9313 35.1289C34.5952 33.2642 34.0569 32.2212 32.5317 32.4741C31.9934 32.5531 31.5627 32.8375 30.522 33.7699C29.8042 34.4336 29.248 34.8286 29.3198 34.6706C29.5889 33.8489 29.7325 33.0429 29.6069 32.8691C29.5172 32.7427 29.2839 32.7111 28.9968 32.7743C28.6559 32.8533 28.4944 33.0271 28.3508 33.5486C27.9381 34.9076 27.7766 35.2237 27.0948 35.919C26.3232 36.6775 25.3184 37.199 24.8698 37.041C24.4032 36.8829 24.5288 35.84 25.1389 34.4178C25.6772 33.1852 25.6952 33.122 25.3722 32.9165C25.1928 32.8059 25.0133 32.7111 24.9595 32.7111C24.9057 32.7111 24.4571 33.3748 23.9905 34.1965C22.9139 36.0296 22.1962 36.8197 21.622 36.8197C21.3887 36.8197 21.1375 36.7249 21.0657 36.6301C20.7607 36.2034 20.976 34.7812 21.4964 33.6592C21.945 32.7427 21.9988 32.5215 21.7835 32.4424C21.3528 32.3002 21.0119 32.5215 20.7069 33.1378C19.702 35.1605 19.3073 35.7452 18.5357 36.3457C16.9387 37.5782 16.1672 36.8671 17.154 35.0499C17.6026 34.2123 17.6206 34.1017 17.3694 33.8805C17.1182 33.6434 16.9926 33.7382 16.0057 34.876C14.6958 36.3931 13.7627 37.1358 13.1885 37.1358C12.7758 37.1358 12.7399 37.0726 12.7399 36.3773C12.7399 35.4923 13.2244 34.5284 14.1934 33.3906C15.5391 31.8103 17.2258 31.5733 17.2258 32.9797C17.2258 33.5486 17.4053 33.6276 17.8359 33.2484C18.2486 32.8849 18.1948 32.5847 17.6026 32.0632C17.2079 31.7313 16.9028 31.6049 16.4184 31.6049C14.3369 31.6049 11.448 34.402 11.448 36.4405C11.448 37.3728 11.8428 37.7679 12.7758 37.7679C13.368 37.7679 13.6192 37.6415 14.4625 36.962C15.2161 36.3141 15.4315 36.2034 15.4315 36.4405C15.4315 37.5308 17.154 37.8469 18.3742 36.9936C18.7331 36.7407 19.1637 36.3773 19.3611 36.1718L19.6841 35.8242L19.9353 36.5195C20.4198 37.8785 21.8194 37.8469 22.9139 36.4563L23.4163 35.8084L23.4702 36.4405C23.542 37.199 23.7214 37.3886 24.4212 37.515C25.0672 37.6257 25.8746 37.357 26.718 36.7249C27.2024 36.3773 27.3101 36.3299 27.2204 36.5669C27.0589 36.9145 27.3639 37.2938 27.7946 37.2938C27.9561 37.2938 28.5482 36.6617 29.1583 35.8558C30.7194 33.7857 31.8678 32.9955 32.5855 33.517C32.8188 33.6908 32.8547 33.8963 32.747 34.6074C32.6752 35.0815 32.6214 35.8242 32.6034 36.2666C32.5676 36.9778 32.6034 37.0726 33.0879 37.2622C33.8595 37.5941 34.8105 37.2938 35.6 36.4721L36.246 35.8084V36.2824C36.246 37.2464 37.0714 37.9259 38.2018 37.9259C39.3502 37.9101 40.4089 37.4518 41.4496 36.4879L42.3468 35.6661V36.235C42.3468 36.9778 42.6877 37.6099 43.0825 37.6099C43.2978 37.6099 43.5849 37.278 43.9617 36.5353C45.5587 33.5328 45.7561 33.28 46.5994 33.3748C47.2454 33.438 47.3172 33.8805 46.9224 35.4607C46.4918 37.1358 46.9224 37.6415 48.5553 37.3728C49.273 37.2622 50.547 36.235 51.0494 35.3975C51.5518 34.5442 51.2468 34.5442 50.6188 35.3817C49.919 36.3457 49.0397 36.9778 48.3938 36.9778C47.9631 36.9778 47.9093 36.9145 47.9093 36.4563C47.9093 36.156 48.0708 35.5081 48.2861 34.9866C48.9141 33.4064 48.4655 32.395 47.1557 32.395C46.1329 32.395 45.2178 33.2168 44.2129 34.9866L43.4055 36.4247L43.5131 35.4765C43.7464 33.4538 43.9079 33.1378 45.2178 31.9368C46.743 30.562 48.1067 28.318 48.2323 26.9432C48.2861 26.3901 48.2323 25.995 48.0887 25.837C47.8375 25.5684 47.7478 25.5526 47.3351 25.7738ZM47.6581 27.4489C47.3172 28.6973 44.7153 32.4108 44.5359 31.921C44.4282 31.6523 45.7202 29.2503 46.5635 28.1284C47.4428 26.9748 47.8555 26.7061 47.6581 27.4489Z" fill="black"/>
<path d="M57.9039 25.9318C56.8811 26.4059 56.1633 27.3857 56.1633 28.3022C56.1633 28.9027 56.253 29.1081 56.5581 29.2978C57.1682 29.677 57.2399 29.6138 57.2399 28.7131C57.2579 27.0696 57.9397 26.0741 59.0702 26.0741C59.9494 26.0741 60.1109 26.3901 60.1109 28.2548C60.1109 29.756 59.8238 30.9412 58.6754 34.2755C57.5809 37.4834 57.7424 38.4 59.4111 38.4C60.3442 38.4 61.1157 37.9891 62.2283 36.883L63.0895 36.0296L63.0178 36.962C62.946 37.8311 62.9639 37.9101 63.4305 38.1788C64.8121 38.9689 66.7321 37.9259 68.9391 35.1605C71.6666 31.7788 73.12 27.4015 71.8639 26.3111C71.3436 25.837 71.218 25.8212 70.6976 26.2005L70.2849 26.5007L70.6797 26.9748C71.4692 27.9071 71.3077 29.519 70.1414 32.0474C68.8853 34.8286 66.1758 37.9259 64.9916 37.9259C64.6865 37.9259 64.4174 37.8311 64.3635 37.6889C64.1662 37.2464 64.6147 35.5397 65.4043 33.7541C66.2476 31.8736 66.3553 31.3205 65.9964 31.0044C65.6734 30.72 65.1351 30.7674 65.1351 31.0834C65.1351 31.6049 63.9508 33.9121 63.0716 35.1763C61.8873 36.8513 60.6672 37.9259 59.9315 37.9259C59.4111 37.9259 59.3932 37.9101 59.3932 37.199C59.3932 36.7881 59.77 35.3343 60.2903 33.8331C61.4567 30.4039 61.5823 29.8509 61.5823 28.4286C61.6002 27.1328 61.2593 26.2479 60.5774 25.837C60.0571 25.5052 58.7113 25.5526 57.9039 25.9318Z" fill="black"/>
<path d="M75.3628 28.8711C74.9501 29.0133 74.4656 29.4242 74.4656 29.6454C74.4656 30.2775 75.8652 30.1985 76.2599 29.5506C76.6009 28.9975 76.0984 28.6341 75.3628 28.8711Z" fill="black"/>
<path d="M54.6381 30.2617C53.4718 31.0993 50.9776 31.3995 49.4345 30.878C48.1785 30.4514 48.1246 30.4514 47.9093 30.799C47.7299 31.1151 47.7837 31.1783 48.7526 31.5733C49.6498 31.9368 50.0087 32 51.4083 31.9842C53.1488 31.9684 54.2075 31.684 55.4097 30.8622C55.9839 30.483 56.0018 30.4514 55.6968 30.1669C55.32 29.7877 55.302 29.7877 54.6381 30.2617Z" fill="black"/>
<path d="M79.0054 31.0045C78.8977 31.1151 78.7721 31.4469 78.7003 31.7472C78.5388 32.5057 77.6237 33.7225 76.6906 34.3862C76.2779 34.6864 75.8473 35.1289 75.7576 35.3659C75.5423 35.919 74.5554 36.7724 73.9991 36.883C73.2096 37.0568 72.8507 36.7408 72.8507 35.8558C72.8507 35.2079 73.0122 34.7812 73.7658 33.5012C74.6092 32.1106 74.7348 31.6049 74.2862 31.6049C74.1965 31.6049 73.8914 31.7946 73.5864 32.0158C72.5816 32.7585 71.3794 35.5872 71.6664 36.5511C71.9715 37.6415 73.3352 37.7837 74.8066 36.8988L75.7037 36.3457L75.9191 36.7091C76.2959 37.357 76.8521 37.7679 77.4802 37.8627C78.3773 38.0208 79.4001 37.6889 79.9743 37.0568C80.2435 36.7566 80.6921 36.4721 80.9612 36.4247C81.2124 36.3615 81.5354 36.2193 81.661 36.0929C81.966 35.761 82.1814 35.8242 82.1814 36.2667C82.1814 36.4879 82.4146 36.883 82.6838 37.1516C83.7066 38.163 85.7701 37.8943 87.4209 36.5353C88.3001 35.8242 89.1076 34.8129 88.9461 34.6706C88.9102 34.6232 88.6052 34.8919 88.2822 35.2711C87.9592 35.6504 87.4747 36.1087 87.2235 36.3141C85.465 37.6889 83.4195 37.5783 83.3656 36.1245C83.3477 35.524 83.3477 35.5082 84.3884 35.2079C86.3263 34.6548 87.6003 33.7067 87.8156 32.6479C88.0669 31.5101 87.2414 31.0519 85.806 31.5259C84.5679 31.9526 83.3656 33.0272 82.5941 34.4336C82.1275 35.2395 81.7148 35.7452 81.2842 35.998L80.6562 36.3615L80.5306 35.4291C80.4588 34.9077 80.2435 34.0069 80.0461 33.4222C79.8308 32.8375 79.6693 32.0158 79.6693 31.5891C79.6693 30.799 79.4001 30.562 79.0054 31.0045ZM87.0261 32.237C87.0261 32.7269 86.5775 33.4064 85.9316 33.8805C85.3215 34.3388 83.6348 35.1447 83.5092 35.0341C83.3477 34.8919 84.4423 33.28 85.16 32.6321C85.7342 32.0948 86.0751 31.921 86.4878 31.921C86.9185 31.921 87.0261 31.9842 87.0261 32.237ZM79.113 33.9437C79.3283 34.8603 79.3822 36.077 79.2027 36.2351C78.9156 36.4879 77.1572 35.2711 77.1572 34.8287C77.1572 34.5284 78.6465 32.8533 78.79 32.9956C78.8618 33.0588 79.0054 33.4854 79.113 33.9437ZM78.6824 36.4405C79.2027 36.5511 79.2207 36.6143 78.8259 37.0094C78.3773 37.4519 77.4443 37.3887 76.9957 36.883C76.6368 36.4879 76.4933 35.5714 76.7265 35.3501C76.7983 35.2869 77.1572 35.4924 77.534 35.7926C77.9108 36.0929 78.4312 36.3773 78.6824 36.4405Z" fill="black"/>
<path d="M19.1995 31.8104C19.1995 31.921 19.2533 32.1738 19.3251 32.3792L19.4327 32.7427L19.666 32.3792C19.989 31.8736 19.971 31.8104 19.5583 31.7155C19.343 31.6681 19.1995 31.7155 19.1995 31.8104Z" fill="black"/>
<path d="M57.6706 32.2528C57.0605 32.8533 55.3918 33.7067 54.0998 34.0701C52.9514 34.3862 52.3593 34.7654 52.9873 34.7654C54.3151 34.7654 57.6347 33.2168 57.9577 32.4583C58.2089 31.9052 58.1012 31.842 57.6706 32.2528Z" fill="black"/>
<path d="M62.0488 34.1333C61.4746 34.9708 61.0081 35.7294 61.0081 35.8084C61.026 35.9664 61.6361 35.1289 62.5691 33.6908C63.5919 32.0948 63.1792 32.4425 62.0488 34.1333Z" fill="black"/>
<path d="M29.7505 37.9101C29.3916 37.9733 28.9609 38.1314 28.7995 38.242C28.62 38.3842 28.2073 38.4158 27.5255 38.3526C26.8616 38.2894 26.3412 38.3368 25.9285 38.4948C25.139 38.7793 24.6186 38.7793 23.6317 38.479C22.914 38.2736 22.7525 38.2736 22.1962 38.479C21.8374 38.6054 21.3349 38.7161 21.1017 38.7161C20.689 38.7161 20.4019 39.1585 17.9077 43.5516L15.1624 48.3872L13.5474 48.9086C12.6503 49.1773 11.161 49.762 10.2279 50.1886C9.29482 50.6153 8.45147 50.9788 8.3797 51.0104C8.28998 51.042 8.27204 50.8365 8.32587 50.5521C9.00772 46.9175 9.24099 45.8588 9.68958 44.6894C10.2638 43.204 11.2686 41.3709 12.2734 39.9803L12.9015 39.1111L12.0581 38.8583C11.2327 38.6212 11.1968 38.6212 10.7482 38.9847C10.192 39.4272 9.06155 42.477 8.32587 45.4321C7.89522 47.2178 6.99805 52.0533 6.99805 52.6538C6.99805 52.8751 7.30309 52.7486 8.39764 52.1323C9.81518 51.3106 11.9146 50.3625 13.6013 49.7936C14.6599 49.4301 14.6958 49.4775 14.2652 50.5521C14.014 51.1842 14.0678 52.1482 14.3549 52.1482C14.4267 52.1482 14.7855 52.0375 15.1265 51.9111C16.1313 51.5477 17.3694 51.6109 18.464 52.0849C19.6124 52.5906 20.366 53.444 20.6531 54.5975C20.8505 55.3561 20.8325 55.5615 20.4916 56.4464C20.2942 56.9995 20.1686 57.5052 20.2224 57.5842C20.3301 57.7264 21.8732 57.6316 22.573 57.442C22.8601 57.363 22.9678 57.3946 22.9678 57.5526C22.9678 57.9951 20.9761 61.2504 19.9174 62.5462L18.8587 63.842H19.5226C20.7787 63.842 26.6462 63.1941 28.9251 62.799C35.0618 61.7561 39.6374 60.0494 42.4545 57.7896L43.6029 56.8573V55.5773C43.6029 54.1235 43.2799 52.6538 42.598 50.8365C42.3468 50.157 42.1674 49.5724 42.1853 49.5565C42.2212 49.5249 42.939 49.1615 43.7823 48.7506C46.0611 47.6128 49.7755 45.5901 51.4083 44.5946C54.0101 43.0143 58.3166 39.838 58.3166 39.5062C58.3166 39.443 58.1372 39.3323 57.9218 39.2375C57.563 39.0953 57.3476 39.2059 56.1634 40.1857C53.4898 42.3664 49.1833 45.0054 44.1232 47.5654C39.2067 50.0464 26.3412 55.4509 25.1569 55.5141C24.7801 55.5457 24.0085 54.8978 20.6172 51.7689L16.5261 47.9921L19.0741 43.5516L21.622 39.1111L25.4799 39.0163C28.7456 38.9373 32.2087 38.6686 32.4599 38.4632C32.4958 38.4316 32.3343 38.2736 32.1011 38.0998C31.6525 37.7679 30.9527 37.7205 29.7505 37.9101ZM17.2079 49.8884L18.1051 50.8049L17.0823 50.8524C16.5081 50.884 15.8801 50.8365 15.6648 50.7733L15.3059 50.6469L15.6648 49.8094C15.8622 49.3669 16.0775 48.9877 16.1672 48.9877C16.239 48.9877 16.7055 49.3985 17.2079 49.8884ZM41.5035 50.7575C42.0239 51.9269 42.5083 53.8706 42.6339 55.1348L42.7416 56.3358L41.8444 57.0785C40.373 58.2953 38.0942 59.4647 35.5821 60.2864C34.1646 60.7605 34.2005 60.7289 36.3537 59.4331C37.2688 58.8958 38.7043 57.8844 39.5656 57.1733L41.1446 55.8775L41.037 54.2815C40.9652 53.3649 40.7678 52.243 40.5525 51.6267C40.1757 50.5837 40.1757 50.5363 40.4986 50.3151C41.019 49.9674 41.1984 50.0464 41.5035 50.7575ZM39.5656 51.8953C39.8706 52.8119 40.1936 54.3763 40.1936 54.961C40.1936 55.7511 36.7664 58.3743 33.7698 59.8598C32.0472 60.7289 29.571 61.6296 27.9023 62.0089C26.5206 62.3407 20.994 62.9412 20.994 62.7674C20.994 62.7358 21.2452 62.3882 21.5503 62.0089C21.8553 61.6138 22.5372 60.4603 23.0755 59.4489C23.6138 58.4375 24.1521 57.4262 24.2777 57.2207C24.4392 56.9205 25.3364 56.5096 28.0817 55.4667C31.8678 54.0286 35.9589 52.3694 37.7712 51.5477C38.3634 51.279 38.9376 51.0578 39.0632 51.042C39.1888 51.042 39.4041 51.4212 39.5656 51.8953Z" fill="black"/>
<path d="M63.1612 39.9645C63.1612 40.3753 63.0894 40.4385 62.587 40.4859C62.2102 40.5175 61.9949 40.6124 61.9949 40.7704C61.9949 40.9284 62.2102 41.0232 62.587 41.0548C63.1074 41.1022 63.1612 41.1496 63.1612 41.6553C63.1612 42.0978 63.233 42.2084 63.4842 42.161C63.6816 42.1294 63.8072 41.9398 63.8431 41.5921C63.8969 41.1338 63.9507 41.0864 64.5249 41.0864C65.0273 41.0864 65.1529 41.0232 65.0991 40.802C65.0632 40.6282 64.8479 40.5175 64.4531 40.4859C63.9507 40.4385 63.8789 40.3753 63.8789 39.9645C63.8789 39.6168 63.7892 39.5062 63.5201 39.5062C63.2509 39.5062 63.1612 39.6168 63.1612 39.9645Z" fill="black"/>
<path d="M69.3338 43.7728C69.2082 43.8834 69.1903 44.2311 69.28 44.7526C69.5492 46.1906 69.0467 47.2652 68.0419 47.4864C66.8217 47.755 66.0322 48.7348 66.0322 49.999C66.0322 51.0261 66.4988 51.0103 66.6782 49.9674C66.8576 48.8138 67.1447 48.4661 68.329 47.9921C69.7286 47.4232 70.0516 46.8543 69.9439 45.1318C69.8901 43.915 69.6748 43.4726 69.3338 43.7728Z" fill="black"/>
<path d="M15.6107 52.6064C14.2111 53.0015 13.4216 53.6494 12.5783 55.1348C11.7529 56.5887 10.7301 59.765 11.0172 60.0178C11.2325 60.1916 14.57 59.5753 15.9337 59.1012C18.6791 58.1531 19.8813 56.9363 19.7018 55.277C19.5045 53.5388 17.3333 52.1324 15.6107 52.6064ZM17.1 53.9496C17.9613 54.2657 18.3561 54.882 18.2484 55.7353C18.1408 56.5729 17.8537 56.8731 16.5438 57.4894C15.521 57.9793 12.9371 58.6904 12.7577 58.5482C12.5783 58.3743 13.5831 55.9724 14.2111 55.119C15.1621 53.8232 15.9337 53.5072 17.1 53.9496Z" fill="black"/>
<path d="M44.9844 60.1442C44.9126 60.2074 44.8588 60.5709 44.8588 60.9501V61.6296H43.9616C42.7235 61.6296 42.7235 62.0247 43.9437 62.1669L44.8408 62.2775L44.8947 63.0202C44.9664 63.9368 45.2535 63.9368 45.4509 63.0044C45.5945 62.3249 45.6483 62.2933 46.3301 62.2143C46.7249 62.1669 47.0838 62.0879 47.1376 62.0563C47.3709 61.8509 46.9223 61.6296 46.2943 61.6296H45.5945L45.5406 60.8869C45.4868 60.1916 45.2715 59.9072 44.9844 60.1442Z" fill="black"/>
</g>
<defs>
<clipPath id="clip0_527_692">
<rect width="89" height="64" fill="white"/>
</clipPath>
</defs>
</svg>
