<svg width="89" height="64" viewBox="0 0 89 64" fill="none" xmlns="http://www.w3.org/2000/svg">
<g clip-path="url(#clip0_527_744)">
<path d="M73.3353 0.252839C73.2635 0.316049 73.2096 0.647901 73.2096 0.979753V1.58025H72.4022C71.828 1.58025 71.5947 1.64346 71.5947 1.80148C71.5947 2.07012 71.9895 2.21235 72.6713 2.21235C73.1558 2.21235 73.1917 2.24395 73.1558 2.84444C73.1379 3.1763 73.1917 3.50815 73.2455 3.57136C73.4967 3.79259 73.748 3.42914 73.748 2.82864V2.21235H74.5195C75.3808 2.21235 75.5603 2.13333 75.4167 1.80148C75.3629 1.65926 75.0399 1.58025 74.5554 1.58025H73.7659L73.8018 0.932345C73.8377 0.316049 73.6223 0.0158021 73.3353 0.252839Z" fill="black"/>
<path d="M38.4534 2.29136C37.8613 2.5126 37.7177 2.74963 38.0228 2.90766C38.1125 2.95506 38.5252 2.89185 38.9558 2.76543C39.9248 2.44939 40.5349 2.57581 41.1988 3.1763C41.9883 3.91902 42.6343 4.15605 43.4955 4.04543C44.3927 3.91902 46.1153 3.08148 46.1153 2.76543C46.1153 2.43358 45.9359 2.46519 44.7695 3.00247C43.3161 3.68198 42.7419 3.63457 41.6294 2.76543C40.822 2.13334 40.6246 2.05432 39.8709 2.05432C39.4044 2.07013 38.7584 2.16494 38.4534 2.29136Z" fill="black"/>
<path d="M58.9268 3.61874C57.2401 4.51948 57.9758 6.95306 59.9496 6.95306C61.5825 6.95306 62.6053 5.76788 62.0311 4.53529C61.4928 3.39751 60.0932 2.98664 58.9268 3.61874ZM61.1698 4.36146C61.6901 4.94615 61.6363 5.46763 61.0083 6.03652C60.5417 6.43158 60.3623 6.49479 59.8778 6.41578C58.1373 6.11553 58.3526 3.95059 60.129 3.95059C60.6494 3.95059 60.8827 4.04541 61.1698 4.36146Z" fill="black"/>
<path d="M22.5018 10.2558C21.2816 10.9195 21.0663 12.3575 22.0711 13.2425C23.058 14.1116 24.655 13.9852 25.4266 12.9738C25.929 12.3101 25.9469 11.6148 25.4804 10.9511C24.8344 10.003 23.5425 9.70272 22.5018 10.2558ZM24.6729 10.9827C25.606 11.7886 24.9421 13.2741 23.6502 13.2741C22.9324 13.2741 22.0711 12.5156 22.0711 11.8835C22.0711 10.7457 23.7578 10.161 24.6729 10.9827Z" fill="black"/>
<path d="M60.2012 11.6465C56.3971 11.8677 51.1756 12.6736 47.9637 13.5269C40.3377 15.5655 34.0754 20.2588 27.4901 28.8869C25.8034 31.0993 25.4445 31.6524 25.6598 31.763C25.8034 31.8578 26.0187 31.921 26.1443 31.921C26.2699 31.921 27.1312 30.9097 28.0643 29.6613C30.6482 26.2637 32.8552 23.846 35.5288 21.4756C40.9119 16.719 45.9361 14.3487 51.8574 13.7482C55.823 13.3531 60.0576 14.3803 62.3723 16.3082C64.077 17.7304 64.077 17.6514 62.3903 19.7689C60.3806 22.2657 60.273 22.3921 60.1653 22.1709C59.9141 21.5862 58.1377 19.8005 57.2405 19.2158C55.5717 18.1255 54.0645 17.6672 51.9651 17.5724C49.8119 17.4934 48.6276 17.683 46.8871 18.4415C44.698 19.3739 42.9036 21.1595 42.0064 23.3087C41.2348 25.0944 41.3246 27.7966 42.2038 29.5981C42.76 30.7516 43.0292 30.2934 42.5268 29.045C41.9526 27.6702 41.827 25.363 42.2576 24.083C43.4598 20.3852 46.9947 17.9832 51.2294 17.9674C55.5 17.9358 58.8554 20.085 60.2909 23.7669C60.6857 24.8257 61.0804 24.9363 60.9189 23.9724C60.7933 23.2613 60.8113 23.2139 62.1211 21.6178C62.8568 20.7171 63.6822 19.7057 63.9334 19.3739L64.4 18.7418L64.6691 19.2948C65.333 20.7013 65.5484 21.8865 65.5484 24.1778C65.5304 26.1373 65.4586 26.7062 65.0639 28.0336C64.8127 28.9027 64.6332 29.6455 64.6871 29.6771C64.8665 29.8351 65.6381 29.5348 65.7278 29.282C65.7637 29.124 66.0508 28.2548 66.3558 27.3383C67.558 23.7037 68.3117 19.5635 68.4911 15.4548C68.6167 12.6894 68.5449 12.4524 67.4145 11.8519C66.8941 11.5674 66.5353 11.5358 63.9693 11.5674C62.3903 11.5832 60.7036 11.6148 60.2012 11.6465ZM67.4504 16.0869C67.3248 17.9516 66.8223 21.9497 66.6788 22.3605C66.6429 22.4395 66.5711 22.2341 66.4994 21.8865C66.4276 21.5388 66.0867 20.4642 65.7457 19.4845L65.0998 17.7146L65.8175 16.64C66.2123 16.0553 66.7506 15.1862 67.0018 14.7279C67.2709 14.2539 67.5221 13.9062 67.5401 13.9378C67.576 13.9536 67.5221 14.9334 67.4504 16.0869Z" fill="black"/>
<path d="M33.8243 12.9896C32.8732 13.4321 32.7118 14.4592 33.4833 14.9965C34.6855 15.834 36.1569 14.8069 35.6007 13.5111C35.493 13.274 34.6317 12.8 34.3267 12.8C34.2549 12.8 34.0216 12.8948 33.8243 12.9896ZM34.8829 13.6849C35.2239 13.9852 35.2418 14.08 34.9368 14.4434C34.5599 14.9017 33.8422 14.7121 33.7704 14.159C33.6807 13.4795 34.3446 13.195 34.8829 13.6849Z" fill="black"/>
<path d="M79.867 15.7393C79.6517 15.9763 79.4902 16.2766 79.4902 16.4346C79.4902 16.9719 80.19 17.5408 80.836 17.5408C81.482 17.5408 82.1818 16.9719 82.1818 16.4346C82.1818 15.8973 81.482 15.3284 80.836 15.3284C80.4054 15.3284 80.1362 15.439 79.867 15.7393ZM81.3384 16.1344C81.6076 16.5136 81.3564 16.9087 80.8539 16.9087C80.3336 16.9087 80.0644 16.3872 80.4054 16.0237C80.6745 15.7393 81.0872 15.7867 81.3384 16.1344Z" fill="black"/>
<path d="M49.9729 18.6627C49.7935 18.8997 49.9909 19.0262 50.3318 18.8997C50.4933 18.8523 50.5651 18.7417 50.5112 18.6469C50.3677 18.4415 50.1165 18.4415 49.9729 18.6627Z" fill="black"/>
<path d="M51.5525 18.5995C51.0501 18.7575 51.3731 18.9313 52.36 19.0262C52.9162 19.0894 53.8672 19.3106 54.4593 19.5318C55.7872 20.0375 56.3434 20.1481 56.3434 19.9427C56.3434 19.4686 52.3241 18.3466 51.5525 18.5995Z" fill="black"/>
<path d="M48.843 20.717C47.5869 21.1437 45.9182 22.5185 45.2901 23.6405C44.9492 24.2568 44.7877 24.8256 44.7339 25.6474L44.6621 26.7852L45.0569 26.3111C45.8284 25.4103 46.7615 24.6676 47.2639 24.557C47.5331 24.4938 48.0714 24.5412 48.4482 24.6518C48.9865 24.8098 49.2557 24.8098 49.8119 24.636C50.2246 24.5096 51.2653 24.4306 52.3061 24.4306C53.7954 24.4464 54.3157 24.5096 55.3385 24.8573C56.469 25.2207 56.6305 25.2365 57.079 25.0311C57.8327 24.6992 57.8506 24.557 57.3482 23.6405C56.7202 22.5027 55.4641 21.4281 54.1004 20.8592C53.0956 20.4326 52.7905 20.3852 51.3909 20.401C50.2426 20.401 49.5248 20.4958 48.843 20.717Z" fill="black"/>
<path d="M19.8639 23.1822C19.7921 23.2296 19.7383 23.5141 19.7383 23.7827C19.7383 24.2568 19.6845 24.3042 19.0026 24.3832C18.6079 24.4306 18.2311 24.5096 18.1772 24.5412C17.9619 24.7467 18.3746 24.9679 18.9309 24.9679C19.523 24.9679 19.5409 24.9837 19.5948 25.6316C19.6665 26.5639 20.169 26.5797 20.2407 25.6474C20.2946 24.9837 20.2946 24.9837 21.0482 24.9363C21.9813 24.8731 21.9633 24.6044 21.0482 24.4938C20.3843 24.4148 20.3663 24.3832 20.3125 23.7353C20.2587 23.1032 20.1331 22.9452 19.8639 23.1822Z" fill="black"/>
<path d="M74.2871 24.2884C74.2871 25.0311 74.7895 25.9951 75.5073 26.7378C75.9379 27.1486 76.0097 27.3383 75.8661 27.4647C75.7046 27.6069 75.7585 27.6543 76.1174 27.6543C76.3686 27.6543 76.9248 27.7649 77.3375 27.8914C78.4321 28.2232 79.0601 28.1916 79.3831 27.7807C80.2264 26.7378 78.8807 26.0109 77.2299 26.6272C76.6198 26.8484 76.5659 26.8326 76.1712 26.4849C75.6329 26.0109 75.0946 25.0469 74.9331 24.2884C74.8613 23.9249 74.6998 23.7037 74.5563 23.7037C74.3589 23.7037 74.2871 23.8775 74.2871 24.2884ZM78.9524 27.2593C78.9524 27.5121 78.1809 27.5911 77.6246 27.4015C77.1401 27.2435 77.499 27.0222 78.2526 27.0222C78.7551 27.0222 78.9524 27.0854 78.9524 27.2593Z" fill="black"/>
<path d="M8.55951 26.1057C7.78794 26.7694 7.15991 27.7333 6.53189 29.2029C6.13713 30.1669 6.01152 30.3091 5.7962 30.1511C5.27584 29.7876 4.98874 29.0449 5.07846 28.3496C5.13229 27.8123 5.0964 27.7017 4.89902 27.7649C4.57604 27.8755 4.12745 28.6498 4.12745 29.0923C4.12745 29.4084 4.9708 30.2459 5.61677 30.5778C5.90386 30.72 5.86798 30.8938 5.15023 32.7901C3.96596 35.84 3.76858 36.2192 3.42765 36.1086C2.79963 35.9032 0.951443 35.84 0.574629 36.0138C-0.0354523 36.2982 0.0542655 37.0094 0.754064 37.5308C1.23854 37.8943 1.45386 37.9417 2.08189 37.8785C2.51253 37.8469 3.08673 37.6415 3.42765 37.4044L4.00185 37.0094L5.34761 37.5624C7.28552 38.3368 8.54156 38.6054 9.27725 38.3842C9.81556 38.2261 10.4077 37.7205 10.4077 37.4202C10.4077 37.3412 9.90528 37.2938 9.27725 37.2938C8.25447 37.2938 6.15507 36.9145 4.9708 36.5195L4.54015 36.3773L5.16818 35.2395C5.49116 34.6232 6.06536 33.3906 6.44217 32.5057L7.08814 30.8938L8.05709 30.7674C10.1924 30.4987 11.6637 29.0449 11.6637 27.1802C11.6637 26.0898 11.1254 25.6 9.97705 25.6C9.31314 25.6 9.06193 25.6948 8.55951 26.1057ZM10.5871 26.1531C10.7307 26.3111 10.7845 26.6429 10.7127 27.1012C10.4436 28.7447 8.82866 30.4987 7.55467 30.4987C7.1958 30.4987 7.21374 30.4671 7.64439 29.4242C8.45185 27.5279 9.02604 26.5323 9.47463 26.2163C10.0129 25.8528 10.2821 25.837 10.5871 26.1531ZM2.94318 36.6617C3.21233 36.9145 2.44076 37.4518 1.81273 37.4518C1.23854 37.4518 0.43108 36.7881 0.628459 36.4879C0.789951 36.2666 2.63814 36.3931 2.94318 36.6617Z" fill="black"/>
<path d="M47.3353 25.7738C46.2767 26.3111 44.0876 29.9773 42.993 33.0113C42.2214 35.1763 41.6652 36.0454 40.6962 36.6617C39.0993 37.6889 37.7535 37.5941 37.4305 36.4563C37.0896 35.2869 38.3277 33.0271 39.6914 32.3318C40.7859 31.7787 40.9654 32.2528 40.2656 33.7699C40.122 34.0701 40.8218 34.0227 41.1628 33.7224C41.5216 33.4064 41.5216 32.5689 41.1628 32.1106C40.5527 31.3363 38.4892 31.8736 37.4305 33.0903C37.1793 33.4064 36.7128 34.1017 36.4436 34.6706C35.7976 35.919 34.7569 36.9778 34.1648 36.9778C33.5368 36.9778 33.465 36.3931 33.9315 35.1289C34.5954 33.2642 34.0571 32.2212 32.5319 32.4741C31.9936 32.5531 31.563 32.8375 30.5222 33.7699C29.8045 34.4336 29.2482 34.8286 29.32 34.6706C29.5892 33.8489 29.7327 33.0429 29.6071 32.8691C29.5174 32.7427 29.2841 32.7111 28.997 32.7743C28.6561 32.8533 28.4946 33.0271 28.3511 33.5486C27.9384 34.9076 27.7769 35.2237 27.095 35.919C26.3234 36.6775 25.3186 37.199 24.87 37.041C24.4035 36.8829 24.5291 35.84 25.1392 34.4178C25.6775 33.1852 25.6954 33.122 25.3724 32.9165C25.193 32.8059 25.0136 32.7111 24.9597 32.7111C24.9059 32.7111 24.4573 33.3748 23.9908 34.1965C22.9142 36.0296 22.1964 36.8197 21.6222 36.8197C21.389 36.8197 21.1378 36.7249 21.066 36.6301C20.7609 36.2034 20.9763 34.7812 21.4966 33.6592C21.9452 32.7427 21.999 32.5215 21.7837 32.4424C21.3531 32.3002 21.0122 32.5215 20.7071 33.1378C19.7023 35.1605 19.3075 35.7452 18.5359 36.3457C16.939 37.5782 16.1674 36.8671 17.1543 35.0499C17.6029 34.2123 17.6208 34.1017 17.3696 33.8805C17.1184 33.6434 16.9928 33.7382 16.0059 34.876C14.696 36.3931 13.763 37.1358 13.1888 37.1358C12.7761 37.1358 12.7402 37.0726 12.7402 36.3773C12.7402 35.4923 13.2247 34.5284 14.1936 33.3906C15.5394 31.8103 17.2261 31.5733 17.2261 32.9797C17.2261 33.5486 17.4055 33.6276 17.8361 33.2484C18.2488 32.8849 18.195 32.5847 17.6029 32.0632C17.2081 31.7313 16.9031 31.6049 16.4186 31.6049C14.3372 31.6049 11.4482 34.402 11.4482 36.4405C11.4482 37.3728 11.843 37.7679 12.7761 37.7679C13.3682 37.7679 13.6194 37.6415 14.4628 36.962C15.2164 36.3141 15.4317 36.2034 15.4317 36.4405C15.4317 37.5308 17.1543 37.8469 18.3745 36.9936C18.7333 36.7407 19.164 36.3773 19.3613 36.1718L19.6843 35.8242L19.9355 36.5195C20.42 37.8785 21.8196 37.8469 22.9142 36.4563L23.4166 35.8084L23.4704 36.4405C23.5422 37.199 23.7216 37.3886 24.4214 37.515C25.0674 37.6257 25.8749 37.357 26.7182 36.7249C27.2027 36.3773 27.3103 36.3299 27.2206 36.5669C27.0591 36.9145 27.3642 37.2938 27.7948 37.2938C27.9563 37.2938 28.5484 36.6617 29.1585 35.8558C30.7196 33.7857 31.868 32.9955 32.5857 33.517C32.819 33.6908 32.8549 33.8963 32.7472 34.6074C32.6755 35.0815 32.6216 35.8242 32.6037 36.2666C32.5678 36.9778 32.6037 37.0726 33.0882 37.2622C33.8597 37.5941 34.8107 37.2938 35.6003 36.4721L36.2462 35.8084V36.2824C36.2462 37.2464 37.0716 37.9259 38.2021 37.9259C39.3505 37.9101 40.4091 37.4518 41.4499 36.4879L42.347 35.6661V36.235C42.347 36.9778 42.688 37.6099 43.0827 37.6099C43.298 37.6099 43.5851 37.278 43.962 36.5353C45.5589 33.5328 45.7563 33.28 46.5997 33.3748C47.2456 33.438 47.3174 33.8805 46.9226 35.4607C46.492 37.1358 46.9226 37.6415 48.5555 37.3728C49.2732 37.2622 50.5472 36.235 51.0497 35.3975C51.5521 34.5442 51.247 34.5442 50.619 35.3817C49.9192 36.3457 49.04 36.9778 48.394 36.9778C47.9634 36.9778 47.9095 36.9145 47.9095 36.4563C47.9095 36.156 48.071 35.5081 48.2864 34.9866C48.9144 33.4064 48.4658 32.395 47.1559 32.395C46.1331 32.395 45.218 33.2168 44.2132 34.9866L43.4057 36.4247L43.5134 35.4765C43.7466 33.4538 43.9081 33.1378 45.218 31.9368C46.7432 30.562 48.1069 28.318 48.2325 26.9432C48.2864 26.3901 48.2325 25.995 48.089 25.837C47.8378 25.5684 47.748 25.5526 47.3353 25.7738ZM47.6583 27.4489C47.3174 28.6973 44.7156 32.4108 44.5361 31.921C44.4285 31.6523 45.7204 29.2503 46.5638 28.1284C47.443 26.9748 47.8557 26.7061 47.6583 27.4489Z" fill="black"/>
<path d="M57.9046 25.9318C56.8818 26.4059 56.1641 27.3857 56.1641 28.3022C56.1641 28.9027 56.2538 29.1081 56.5588 29.2978C57.1689 29.677 57.2407 29.6138 57.2407 28.7131C57.2586 27.0696 57.9405 26.0741 59.0709 26.0741C59.9502 26.0741 60.1116 26.3901 60.1116 28.2548C60.1116 29.756 59.8245 30.9412 58.6762 34.2755C57.5816 37.4834 57.7431 38.4 59.4118 38.4C60.3449 38.4 61.1165 37.9891 62.229 36.883L63.0903 36.0296L63.0185 36.962C62.9467 37.8311 62.9647 37.9101 63.4312 38.1788C64.8129 38.9689 66.7328 37.9259 68.9399 35.1605C71.6673 31.7788 73.1207 27.4015 71.8647 26.3111C71.3443 25.837 71.2187 25.8212 70.6983 26.2005L70.2856 26.5007L70.6804 26.9748C71.4699 27.9071 71.3084 29.519 70.1421 32.0474C68.886 34.8286 66.1766 37.9259 64.9923 37.9259C64.6872 37.9259 64.4181 37.8311 64.3643 37.6889C64.1669 37.2464 64.6155 35.5397 65.405 33.7541C66.2483 31.8736 66.356 31.3205 65.9971 31.0044C65.6741 30.72 65.1358 30.7674 65.1358 31.0834C65.1358 31.6049 63.9516 33.9121 63.0723 35.1763C61.8881 36.8513 60.6679 37.9259 59.9322 37.9259C59.4118 37.9259 59.3939 37.9101 59.3939 37.199C59.3939 36.7881 59.7707 35.3343 60.2911 33.8331C61.4574 30.4039 61.583 29.8509 61.583 28.4286C61.601 27.1328 61.26 26.2479 60.5782 25.837C60.0578 25.5052 58.712 25.5526 57.9046 25.9318Z" fill="black"/>
<path d="M75.363 28.8711C74.9503 29.0133 74.4658 29.4242 74.4658 29.6454C74.4658 30.2775 75.8654 30.1985 76.2602 29.5506C76.6011 28.9975 76.0987 28.634 75.363 28.8711Z" fill="black"/>
<path d="M54.6389 30.2617C53.4725 31.0993 50.9784 31.3995 49.4352 30.878C48.1792 30.4514 48.1254 30.4514 47.91 30.799C47.7306 31.1151 47.7844 31.1783 48.7534 31.5733C49.6506 31.9368 50.0094 32 51.409 31.9842C53.1495 31.9684 54.2082 31.684 55.4104 30.8622C55.9846 30.483 56.0026 30.4514 55.6975 30.1669C55.3207 29.7877 55.3028 29.7877 54.6389 30.2617Z" fill="black"/>
<path d="M79.0061 31.0045C78.8984 31.1151 78.7728 31.4469 78.7011 31.7472C78.5396 32.5057 77.6244 33.7225 76.6914 34.3862C76.2787 34.6864 75.848 35.1289 75.7583 35.3659C75.543 35.919 74.5561 36.7724 73.9998 36.883C73.2103 37.0568 72.8515 36.7408 72.8515 35.8558C72.8515 35.2079 73.0129 34.7812 73.7666 33.5012C74.6099 32.1106 74.7355 31.6049 74.2869 31.6049C74.1972 31.6049 73.8922 31.7946 73.5871 32.0158C72.5823 32.7585 71.3801 35.5872 71.6672 36.5511C71.9722 37.6415 73.3359 37.7837 74.8073 36.8988L75.7045 36.3457L75.9198 36.7091C76.2966 37.357 76.8529 37.7679 77.4809 37.8627C78.3781 38.0208 79.4009 37.6889 79.975 37.0568C80.2442 36.7566 80.6928 36.4721 80.9619 36.4247C81.2131 36.3615 81.5361 36.2193 81.6617 36.0929C81.9668 35.761 82.1821 35.8242 82.1821 36.2667C82.1821 36.4879 82.4154 36.883 82.6845 37.1516C83.7073 38.163 85.7708 37.8943 87.4216 36.5353C88.3008 35.8242 89.1083 34.8129 88.9468 34.6706C88.9109 34.6232 88.6059 34.8919 88.2829 35.2711C87.9599 35.6504 87.4754 36.1087 87.2242 36.3141C85.4658 37.6889 83.4202 37.5783 83.3664 36.1245C83.3484 35.524 83.3484 35.5082 84.3892 35.2079C86.3271 34.6548 87.6011 33.7067 87.8164 32.6479C88.0676 31.5101 87.2422 31.0519 85.8067 31.5259C84.5686 31.9526 83.3664 33.0272 82.5948 34.4336C82.1283 35.2395 81.7156 35.7452 81.2849 35.998L80.6569 36.3615L80.5313 35.4291C80.4595 34.9077 80.2442 34.0069 80.0468 33.4222C79.8315 32.8375 79.67 32.0158 79.67 31.5891C79.67 30.799 79.4009 30.562 79.0061 31.0045ZM87.0269 32.237C87.0269 32.7269 86.5783 33.4064 85.9323 33.8805C85.3222 34.3388 83.6355 35.1447 83.5099 35.0341C83.3484 34.8919 84.443 33.28 85.1607 32.6321C85.7349 32.0948 86.0758 31.921 86.4886 31.921C86.9192 31.921 87.0269 31.9842 87.0269 32.237ZM79.1138 33.9437C79.3291 34.8603 79.3829 36.077 79.2035 36.2351C78.9164 36.4879 77.1579 35.2711 77.1579 34.8287C77.1579 34.5284 78.6472 32.8533 78.7908 32.9956C78.8625 33.0588 79.0061 33.4854 79.1138 33.9437ZM78.6831 36.4405C79.2035 36.5511 79.2214 36.6143 78.8267 37.0094C78.3781 37.4519 77.445 37.3887 76.9964 36.883C76.6375 36.4879 76.494 35.5714 76.7273 35.3501C76.799 35.2869 77.1579 35.4924 77.5347 35.7926C77.9115 36.0929 78.4319 36.3773 78.6831 36.4405Z" fill="black"/>
<path d="M19.2002 31.8104C19.2002 31.921 19.254 32.1738 19.3258 32.3793L19.4335 32.7427L19.6667 32.3793C19.9897 31.8736 19.9718 31.8104 19.5591 31.7156C19.3437 31.6682 19.2002 31.7156 19.2002 31.8104Z" fill="black"/>
<path d="M57.6708 32.2528C57.0607 32.8533 55.392 33.7067 54.1001 34.0701C52.9517 34.3862 52.3595 34.7654 52.9876 34.7654C54.3154 34.7654 57.6349 33.2168 57.9579 32.4583C58.2091 31.9052 58.1015 31.842 57.6708 32.2528Z" fill="black"/>
<path d="M62.0495 34.1333C61.4753 34.9708 61.0088 35.7294 61.0088 35.8084C61.0267 35.9664 61.6368 35.1289 62.5699 33.6908C63.5927 32.0948 63.18 32.4425 62.0495 34.1333Z" fill="black"/>
<path d="M29.7505 37.9101C29.3916 37.9733 28.9609 38.1314 28.7995 38.242C28.62 38.3842 28.2073 38.4158 27.5255 38.3526C26.8616 38.2894 26.3412 38.3368 25.9285 38.4948C25.139 38.7793 24.6186 38.7793 23.6317 38.479C22.914 38.2736 22.7525 38.2736 22.1962 38.479C21.8374 38.6054 21.3349 38.7161 21.1017 38.7161C20.689 38.7161 20.4019 39.1585 17.9077 43.5516L15.1624 48.3872L13.5474 48.9086C12.6503 49.1773 11.161 49.762 10.2279 50.1886C9.29482 50.6153 8.45147 50.9788 8.3797 51.0104C8.28998 51.042 8.27204 50.8365 8.32587 50.5521C9.00772 46.9175 9.24099 45.8588 9.68958 44.6894C10.2638 43.204 11.2686 41.3709 12.2734 39.9803L12.9015 39.1111L12.0581 38.8583C11.2327 38.6212 11.1968 38.6212 10.7482 38.9847C10.192 39.4272 9.06155 42.477 8.32587 45.4321C7.89522 47.2178 6.99805 52.0533 6.99805 52.6538C6.99805 52.8751 7.30309 52.7486 8.39764 52.1323C9.81518 51.3106 11.9146 50.3625 13.6013 49.7936C14.6599 49.4301 14.6958 49.4775 14.2652 50.5521C14.014 51.1842 14.0678 52.1482 14.3549 52.1482C14.4267 52.1482 14.7855 52.0375 15.1265 51.9111C16.1313 51.5477 17.3694 51.6109 18.464 52.0849C19.6124 52.5906 20.366 53.444 20.6531 54.5975C20.8505 55.3561 20.8325 55.5615 20.4916 56.4464C20.2942 56.9995 20.1686 57.5052 20.2224 57.5842C20.3301 57.7264 21.8732 57.6316 22.573 57.442C22.8601 57.363 22.9678 57.3946 22.9678 57.5526C22.9678 57.9951 20.9761 61.2504 19.9174 62.5462L18.8587 63.842H19.5226C20.7787 63.842 26.6462 63.1941 28.9251 62.799C35.0618 61.7561 39.6374 60.0494 42.4545 57.7896L43.6029 56.8573V55.5773C43.6029 54.1235 43.2799 52.6538 42.598 50.8365C42.3468 50.157 42.1674 49.5724 42.1853 49.5565C42.2212 49.5249 42.939 49.1615 43.7823 48.7506C46.0611 47.6128 49.7755 45.5901 51.4083 44.5946C54.0101 43.0143 58.3166 39.838 58.3166 39.5062C58.3166 39.443 58.1372 39.3323 57.9218 39.2375C57.563 39.0953 57.3476 39.2059 56.1634 40.1857C53.4898 42.3664 49.1833 45.0054 44.1232 47.5654C39.2067 50.0464 26.3412 55.4509 25.1569 55.5141C24.7801 55.5457 24.0085 54.8978 20.6172 51.7689L16.5261 47.9921L19.0741 43.5516L21.622 39.1111L25.4799 39.0163C28.7456 38.9373 32.2087 38.6686 32.4599 38.4632C32.4958 38.4316 32.3343 38.2736 32.1011 38.0998C31.6525 37.7679 30.9527 37.7205 29.7505 37.9101ZM17.2079 49.8884L18.1051 50.8049L17.0823 50.8524C16.5081 50.884 15.8801 50.8365 15.6648 50.7733L15.3059 50.6469L15.6648 49.8094C15.8622 49.3669 16.0775 48.9877 16.1672 48.9877C16.239 48.9877 16.7055 49.3985 17.2079 49.8884ZM41.5035 50.7575C42.0239 51.9269 42.5083 53.8706 42.6339 55.1348L42.7416 56.3358L41.8444 57.0785C40.373 58.2953 38.0942 59.4647 35.5821 60.2864C34.1646 60.7605 34.2005 60.7289 36.3537 59.4331C37.2688 58.8958 38.7043 57.8844 39.5656 57.1733L41.1446 55.8775L41.037 54.2815C40.9652 53.3649 40.7678 52.243 40.5525 51.6267C40.1757 50.5837 40.1757 50.5363 40.4986 50.3151C41.019 49.9674 41.1984 50.0464 41.5035 50.7575ZM39.5656 51.8953C39.8706 52.8119 40.1936 54.3763 40.1936 54.961C40.1936 55.7511 36.7664 58.3743 33.7698 59.8598C32.0472 60.7289 29.571 61.6296 27.9023 62.0089C26.5206 62.3407 20.994 62.9412 20.994 62.7674C20.994 62.7358 21.2452 62.3882 21.5503 62.0089C21.8553 61.6138 22.5372 60.4603 23.0755 59.4489C23.6138 58.4375 24.1521 57.4262 24.2777 57.2207C24.4392 56.9205 25.3364 56.5096 28.0817 55.4667C31.8678 54.0286 35.9589 52.3694 37.7712 51.5477C38.3634 51.279 38.9376 51.0578 39.0632 51.042C39.1888 51.042 39.4041 51.4212 39.5656 51.8953Z" fill="black"/>
<path d="M63.1614 39.9645C63.1614 40.3753 63.0897 40.4385 62.5873 40.4859C62.2104 40.5175 61.9951 40.6124 61.9951 40.7704C61.9951 40.9284 62.2104 41.0232 62.5873 41.0548C63.1076 41.1022 63.1614 41.1496 63.1614 41.6553C63.1614 42.0978 63.2332 42.2084 63.4844 42.161C63.6818 42.1294 63.8074 41.9398 63.8433 41.5921C63.8971 41.1338 63.951 41.0864 64.5252 41.0864C65.0276 41.0864 65.1532 41.0232 65.0994 40.802C65.0635 40.6282 64.8481 40.5175 64.4534 40.4859C63.951 40.4385 63.8792 40.3753 63.8792 39.9645C63.8792 39.6168 63.7895 39.5062 63.5203 39.5062C63.2512 39.5062 63.1614 39.6168 63.1614 39.9645Z" fill="black"/>
<path d="M69.3338 43.7728C69.2082 43.8834 69.1903 44.2311 69.28 44.7526C69.5492 46.1906 69.0467 47.2652 68.0419 47.4864C66.8217 47.755 66.0322 48.7348 66.0322 49.999C66.0322 51.0261 66.4988 51.0103 66.6782 49.9674C66.8576 48.8138 67.1447 48.4661 68.329 47.9921C69.7286 47.4232 70.0516 46.8543 69.9439 45.1318C69.8901 43.915 69.6748 43.4726 69.3338 43.7728Z" fill="black"/>
<path d="M15.6117 52.6064C14.2121 53.0015 13.4226 53.6494 12.5792 55.1348C11.7538 56.5887 10.731 59.765 11.0181 60.0178C11.2335 60.1916 14.571 59.5753 15.9347 59.1012C18.68 58.1531 19.8823 56.9363 19.7028 55.277C19.5054 53.5388 17.3343 52.1324 15.6117 52.6064ZM17.101 53.9496C17.9623 54.2657 18.3571 54.882 18.2494 55.7353C18.1417 56.5729 17.8546 56.8731 16.5448 57.4894C15.522 57.9793 12.9381 58.6904 12.7587 58.5482C12.5792 58.3743 13.5841 55.9724 14.2121 55.119C15.1631 53.8232 15.9347 53.5072 17.101 53.9496Z" fill="black"/>
<path d="M44.9849 60.1442C44.9131 60.2074 44.8593 60.5709 44.8593 60.9501V61.6296H43.9621C42.724 61.6296 42.724 62.0247 43.9441 62.1669L44.8413 62.2775L44.8951 63.0202C44.9669 63.9368 45.254 63.9368 45.4514 63.0044C45.5949 62.3249 45.6488 62.2933 46.3306 62.2143C46.7254 62.1669 47.0843 62.0879 47.1381 62.0563C47.3714 61.8509 46.9228 61.6296 46.2947 61.6296H45.5949L45.5411 60.8869C45.4873 60.1916 45.272 59.9072 44.9849 60.1442Z" fill="black"/>
</g>
<defs>
<clipPath id="clip0_527_744">
<rect width="89" height="64" fill="white"/>
</clipPath>
</defs>
</svg>
