<svg width="16" height="17" viewBox="0 0 16 17" fill="none" xmlns="http://www.w3.org/2000/svg">
<g clip-path="url(#clip0_387_1037)">
<path d="M6.39211 7.43428C6.53704 7.02229 6.8231 6.67489 7.19963 6.4536C7.57616 6.23231 8.01885 6.15142 8.44931 6.22525C8.87976 6.29908 9.2702 6.52288 9.55146 6.857C9.83272 7.19111 9.98666 7.61399 9.98601 8.05073C9.98601 9.28363 8.13666 9.90008 8.13666 9.90008M8.18598 12.3659H8.19214M14.3505 9.28363C14.3505 12.6882 11.5905 15.4481 8.18598 15.4481C4.78142 15.4481 2.02148 12.6882 2.02148 9.28363C2.02148 5.87908 4.78142 3.11914 8.18598 3.11914C11.5905 3.11914 14.3505 5.87908 14.3505 9.28363Z" stroke="#98A2B3" stroke-width="1.2329" stroke-linecap="round" stroke-linejoin="round"/>
</g>
<defs>
<clipPath id="clip0_387_1037">
<rect width="14.7948" height="14.7948" fill="white" transform="translate(0.789062 1.88623)"/>
</clipPath>
</defs>
</svg>
