<svg width="16" height="16" viewBox="0 0 16 16" fill="none" xmlns="http://www.w3.org/2000/svg">
<g clip-path="url(#clip0_387_1062)">
<path d="M6.39211 6.50313C6.53704 6.09114 6.8231 5.74373 7.19963 5.52244C7.57616 5.30115 8.01885 5.22026 8.44931 5.2941C8.87976 5.36793 9.2702 5.59173 9.55146 5.92584C9.83272 6.25996 9.98666 6.68284 9.98601 7.11958C9.98601 8.35248 8.13666 8.96893 8.13666 8.96893M8.18598 11.4347H8.19214M14.3505 8.35248C14.3505 11.757 11.5905 14.517 8.18598 14.517C4.78142 14.517 2.02148 11.757 2.02148 8.35248C2.02148 4.94792 4.78142 2.18799 8.18598 2.18799C11.5905 2.18799 14.3505 4.94792 14.3505 8.35248Z" stroke="#98A2B3" stroke-width="1.2329" stroke-linecap="round" stroke-linejoin="round"/>
</g>
<defs>
<clipPath id="clip0_387_1062">
<rect width="14.7948" height="14.7948" fill="white" transform="translate(0.789062 0.955566)"/>
</clipPath>
</defs>
</svg>
