<svg width="16" height="16" viewBox="0 0 16 16" fill="none" xmlns="http://www.w3.org/2000/svg">
<path d="M6.45766 6.30982C6.5999 5.90546 6.88067 5.56448 7.25022 5.34729C7.61978 5.1301 8.05428 5.05071 8.47676 5.12317C8.89924 5.19564 9.28245 5.41529 9.5585 5.74322C9.83455 6.07115 9.98564 6.4862 9.985 6.91485C9.985 8.12492 8.1699 8.72995 8.1699 8.72995M8.2183 11.1501H8.22435M14.2686 8.12492C14.2686 11.4664 11.5598 14.1753 8.2183 14.1753C4.8768 14.1753 2.16797 11.4664 2.16797 8.12492C2.16797 4.78341 4.8768 2.07458 8.2183 2.07458C11.5598 2.07458 14.2686 4.78341 14.2686 8.12492Z" stroke="#98A2B3" stroke-width="1.21007" stroke-linecap="round" stroke-linejoin="round"/>
</svg>
