<svg width="16" height="17" viewBox="0 0 16 17" fill="none" xmlns="http://www.w3.org/2000/svg">
<path d="M6.45766 7.07557C6.5999 6.6712 6.88067 6.33023 7.25022 6.11304C7.61978 5.89585 8.05428 5.81645 8.47676 5.88892C8.89924 5.96139 9.28245 6.18104 9.5585 6.50897C9.83455 6.8369 9.98564 7.25195 9.985 7.6806C9.985 8.89067 8.1699 9.4957 8.1699 9.4957M8.2183 11.9158H8.22435M14.2686 8.89067C14.2686 12.2322 11.5598 14.941 8.2183 14.941C4.8768 14.941 2.16797 12.2322 2.16797 8.89067C2.16797 5.54916 4.8768 2.84033 8.2183 2.84033C11.5598 2.84033 14.2686 5.54916 14.2686 8.89067Z" stroke="#98A2B3" stroke-width="1.21007" stroke-linecap="round" stroke-linejoin="round"/>
</svg>
