<svg width="16" height="16" viewBox="0 0 16 16" fill="none" xmlns="http://www.w3.org/2000/svg">
<path d="M6.45766 6.09095C6.5999 5.68658 6.88067 5.34561 7.25022 5.12842C7.61978 4.91123 8.05428 4.83183 8.47676 4.9043C8.89924 4.97677 9.28245 5.19642 9.5585 5.52435C9.83455 5.85228 9.98564 6.26733 9.985 6.69598C9.985 7.90605 8.1699 8.51108 8.1699 8.51108M8.2183 10.9312H8.22435M14.2686 7.90605C14.2686 11.2476 11.5598 13.9564 8.2183 13.9564C4.8768 13.9564 2.16797 11.2476 2.16797 7.90605C2.16797 4.56454 4.8768 1.85571 8.2183 1.85571C11.5598 1.85571 14.2686 4.56454 14.2686 7.90605Z" stroke="#98A2B3" stroke-width="1.21007" stroke-linecap="round" stroke-linejoin="round"/>
</svg>
