<svg width="16" height="16" viewBox="0 0 16 16" fill="none" xmlns="http://www.w3.org/2000/svg">
<g clip-path="url(#clip0_387_1247)">
<path d="M6.45766 6.77808C6.5999 6.37372 6.88067 6.03274 7.25022 5.81555C7.61978 5.59836 8.05428 5.51897 8.47676 5.59144C8.89924 5.6639 9.28245 5.88355 9.5585 6.21148C9.83455 6.53941 9.98564 6.95446 9.985 7.38311C9.985 8.59318 8.1699 9.19821 8.1699 9.19821M8.2183 11.6183H8.22435M14.2686 8.59318C14.2686 11.9347 11.5598 14.6435 8.2183 14.6435C4.8768 14.6435 2.16797 11.9347 2.16797 8.59318C2.16797 5.25167 4.8768 2.54285 8.2183 2.54285C11.5598 2.54285 14.2686 5.25167 14.2686 8.59318Z" stroke="#98A2B3" stroke-width="1.21007" stroke-linecap="round" stroke-linejoin="round"/>
</g>
<defs>
<clipPath id="clip0_387_1247">
<rect width="14.5208" height="14.5208" fill="white" transform="translate(0.958008 1.33276)"/>
</clipPath>
</defs>
</svg>
