<svg width="16" height="17" viewBox="0 0 16 17" fill="none" xmlns="http://www.w3.org/2000/svg">
<path d="M6.39211 7.22628C6.53704 6.81428 6.8231 6.46688 7.19963 6.24559C7.57616 6.0243 8.01885 5.94341 8.44931 6.01724C8.87976 6.09108 9.2702 6.31487 9.55146 6.64899C9.83272 6.98311 9.98666 7.40599 9.98601 7.84273C9.98601 9.07562 8.13666 9.69207 8.13666 9.69207M8.18598 12.1579H8.19214M14.3505 9.07562C14.3505 12.4802 11.5905 15.2401 8.18598 15.2401C4.78142 15.2401 2.02148 12.4802 2.02148 9.07562C2.02148 5.67107 4.78142 2.91113 8.18598 2.91113C11.5905 2.91113 14.3505 5.67107 14.3505 9.07562Z" stroke="#98A2B3" stroke-width="1.2329" stroke-linecap="round" stroke-linejoin="round"/>
</svg>
