<svg width="36" height="30" viewBox="0 0 36 30" fill="none" xmlns="http://www.w3.org/2000/svg">
<g clip-path="url(#clip0_387_267)">
<path fill-rule="evenodd" clip-rule="evenodd" d="M34.4375 29.2942C34.4375 29.2942 36.75 29.2942 36.75 26.9609C36.75 24.6275 34.4375 17.6275 25.1875 17.6275C15.9375 17.6275 13.625 24.6275 13.625 26.9609C13.625 29.2942 15.9375 29.2942 15.9375 29.2942H34.4375ZM15.9884 26.9609H34.3866C34.3975 26.9596 34.4082 26.958 34.419 26.9562L34.4375 26.9515C34.4329 26.3355 34.0513 24.5482 32.68 22.9382C31.4035 21.4285 29.1604 19.9609 25.1875 19.9609C21.2169 19.9609 18.9738 21.4309 17.695 22.9382C16.3237 24.5482 15.9398 26.3379 15.9375 26.9515C15.9544 26.9548 15.9714 26.9579 15.9884 26.9609ZM25.1875 12.9609C26.4141 12.9609 27.5905 12.4692 28.4579 11.594C29.3252 10.7189 29.8125 9.53187 29.8125 8.29419C29.8125 7.05651 29.3252 5.86953 28.4579 4.99436C27.5905 4.11919 26.4141 3.62752 25.1875 3.62752C23.9609 3.62752 22.7845 4.11919 21.9171 4.99436C21.0498 5.86953 20.5625 7.05651 20.5625 8.29419C20.5625 9.53187 21.0498 10.7189 21.9171 11.594C22.7845 12.4692 23.9609 12.9609 25.1875 12.9609ZM32.125 8.29419C32.125 9.21344 31.9456 10.1237 31.5969 10.973C31.2483 11.8223 30.7373 12.5939 30.0931 13.2439C29.4488 13.8939 28.6841 14.4096 27.8424 14.7613C27.0007 15.1131 26.0985 15.2942 25.1875 15.2942C24.2765 15.2942 23.3743 15.1131 22.5326 14.7613C21.6909 14.4096 20.9262 13.8939 20.2819 13.2439C19.6377 12.5939 19.1267 11.8223 18.7781 10.973C18.4294 10.1237 18.25 9.21344 18.25 8.29419C18.25 6.43767 18.9809 4.6572 20.2819 3.34444C21.583 2.03169 23.3476 1.29419 25.1875 1.29419C27.0274 1.29419 28.792 2.03169 30.0931 3.34444C31.3941 4.6572 32.125 6.43767 32.125 8.29419ZM15.7895 18.2809C14.8645 17.9869 13.9109 17.7937 12.9451 17.7045C12.4025 17.6525 11.8576 17.6268 11.3125 17.6275C2.0625 17.6275 -0.25 24.6275 -0.25 26.9609C-0.25 28.5172 0.520063 29.2942 2.0625 29.2942H11.812C11.4692 28.5658 11.2982 27.7671 11.3125 26.9609C11.3125 24.6042 12.1843 22.1962 13.8331 20.1849C14.3951 19.4989 15.0495 18.8572 15.7895 18.2809ZM11.1275 19.9609C7.27025 20.0075 5.08031 21.4542 3.82 22.9382C2.43944 24.5575 2.0625 26.3519 2.0625 26.9609H9C9 24.5225 9.74694 22.0935 11.1275 19.9609ZM3.21875 9.46086C3.21875 7.60434 3.94966 5.82386 5.2507 4.51111C6.55173 3.19835 8.31631 2.46086 10.1562 2.46086C11.9962 2.46086 13.7608 3.19835 15.0618 4.51111C16.3628 5.82386 17.0938 7.60434 17.0938 9.46086C17.0938 11.3174 16.3628 13.0978 15.0618 14.4106C13.7608 15.7234 11.9962 16.4609 10.1562 16.4609C8.31631 16.4609 6.55173 15.7234 5.2507 14.4106C3.94966 13.0978 3.21875 11.3174 3.21875 9.46086ZM10.1562 4.79419C8.92962 4.79419 7.75324 5.28585 6.88588 6.16102C6.01853 7.03619 5.53125 8.22318 5.53125 9.46086C5.53125 10.6985 6.01853 11.8855 6.88588 12.7607C7.75324 13.6359 8.92962 14.1275 10.1562 14.1275C11.3829 14.1275 12.5593 13.6359 13.4266 12.7607C14.294 11.8855 14.7812 10.6985 14.7812 9.46086C14.7812 8.22318 14.294 7.03619 13.4266 6.16102C12.5593 5.28585 11.3829 4.79419 10.1562 4.79419Z" fill="white"/>
</g>
<defs>
<clipPath id="clip0_387_267">
<rect width="36" height="29.6471" fill="white" transform="translate(0 0.294189)"/>
</clipPath>
</defs>
</svg>
