<svg width="36" height="30" viewBox="0 0 36 30" fill="none" xmlns="http://www.w3.org/2000/svg">
<g clip-path="url(#clip0_387_255)">
<path fill-rule="evenodd" clip-rule="evenodd" d="M34.4375 29C34.4375 29 36.75 29 36.75 26.6667C36.75 24.3333 34.4375 17.3333 25.1875 17.3333C15.9375 17.3333 13.625 24.3333 13.625 26.6667C13.625 29 15.9375 29 15.9375 29H34.4375ZM15.9884 26.6667H34.3866C34.3975 26.6654 34.4082 26.6638 34.419 26.662L34.4375 26.6573C34.4329 26.0413 34.0513 24.254 32.68 22.644C31.4035 21.1343 29.1604 19.6667 25.1875 19.6667C21.2169 19.6667 18.9738 21.1367 17.695 22.644C16.3237 24.254 15.9398 26.0437 15.9375 26.6573C15.9544 26.6606 15.9714 26.6637 15.9884 26.6667ZM25.1875 12.6667C26.4141 12.6667 27.5905 12.175 28.4579 11.2998C29.3252 10.4247 29.8125 9.23768 29.8125 8C29.8125 6.76232 29.3252 5.57534 28.4579 4.70017C27.5905 3.825 26.4141 3.33333 25.1875 3.33333C23.9609 3.33333 22.7845 3.825 21.9171 4.70017C21.0498 5.57534 20.5625 6.76232 20.5625 8C20.5625 9.23768 21.0498 10.4247 21.9171 11.2998C22.7845 12.175 23.9609 12.6667 25.1875 12.6667ZM32.125 8C32.125 8.91925 31.9456 9.8295 31.5969 10.6788C31.2483 11.5281 30.7373 12.2997 30.0931 12.9497C29.4488 13.5998 28.6841 14.1154 27.8424 14.4672C27.0007 14.8189 26.0985 15 25.1875 15C24.2765 15 23.3743 14.8189 22.5326 14.4672C21.6909 14.1154 20.9262 13.5998 20.2819 12.9497C19.6377 12.2997 19.1267 11.5281 18.7781 10.6788C18.4294 9.8295 18.25 8.91925 18.25 8C18.25 6.14348 18.9809 4.36301 20.2819 3.05025C21.583 1.7375 23.3476 1 25.1875 1C27.0274 1 28.792 1.7375 30.0931 3.05025C31.3941 4.36301 32.125 6.14348 32.125 8ZM15.7895 17.9867C14.8645 17.6928 13.9109 17.4995 12.9451 17.4103C12.4025 17.3583 11.8576 17.3326 11.3125 17.3333C2.0625 17.3333 -0.25 24.3333 -0.25 26.6667C-0.25 28.223 0.520063 29 2.0625 29H11.812C11.4692 28.2716 11.2982 27.4729 11.3125 26.6667C11.3125 24.31 12.1843 21.902 13.8331 19.8907C14.3951 19.2047 15.0495 18.563 15.7895 17.9867ZM11.1275 19.6667C7.27025 19.7133 5.08031 21.16 3.82 22.644C2.43944 24.2633 2.0625 26.0577 2.0625 26.6667H9C9 24.2283 9.74694 21.7993 11.1275 19.6667ZM3.21875 9.16667C3.21875 7.31015 3.94966 5.52967 5.2507 4.21692C6.55173 2.90416 8.31631 2.16667 10.1562 2.16667C11.9962 2.16667 13.7608 2.90416 15.0618 4.21692C16.3628 5.52967 17.0938 7.31015 17.0938 9.16667C17.0938 11.0232 16.3628 12.8037 15.0618 14.1164C13.7608 15.4292 11.9962 16.1667 10.1562 16.1667C8.31631 16.1667 6.55173 15.4292 5.2507 14.1164C3.94966 12.8037 3.21875 11.0232 3.21875 9.16667ZM10.1562 4.5C8.92962 4.5 7.75324 4.99166 6.88588 5.86683C6.01853 6.742 5.53125 7.92899 5.53125 9.16667C5.53125 10.4043 6.01853 11.5913 6.88588 12.4665C7.75324 13.3417 8.92962 13.8333 10.1562 13.8333C11.3829 13.8333 12.5593 13.3417 13.4266 12.4665C14.294 11.5913 14.7812 10.4043 14.7812 9.16667C14.7812 7.92899 14.294 6.742 13.4266 5.86683C12.5593 4.99166 11.3829 4.5 10.1562 4.5Z" fill="#3C4647"/>
</g>
<defs>
<clipPath id="clip0_387_255">
<rect width="36" height="29.6471" fill="white"/>
</clipPath>
</defs>
</svg>
