<svg width="19" height="20" viewBox="0 0 19 20" fill="none" xmlns="http://www.w3.org/2000/svg">
<g clip-path="url(#clip0_387_831)">
<path d="M7.37559 11.4158V19.3984H10.9215V11.4158H13.5764L14.0753 8.11941H10.9215V5.9812C10.9215 5.52981 11.0551 5.11998 11.3224 4.75174C11.5896 4.38349 12.0737 4.19937 12.7746 4.19937H14.2178V1.38406C14.2178 1.38406 13.9476 1.34546 13.4071 1.26825C12.8666 1.19103 12.2875 1.15243 11.6698 1.15243C11.0165 1.15243 10.4285 1.2534 9.9058 1.45534C9.38313 1.6454 8.9347 1.92752 8.56052 2.30171C8.18633 2.6759 7.89233 3.14214 7.67851 3.70045C7.47656 4.25876 7.37559 4.89428 7.37559 5.60702V8.11941H4.50684V11.4158H7.37559Z" fill="black"/>
</g>
<defs>
<clipPath id="clip0_387_831">
<rect width="18.246" height="18.246" fill="white" transform="matrix(1 0 0 -1 0.444336 19.2168)"/>
</clipPath>
</defs>
</svg>
