<svg width="20" height="20" viewBox="0 0 20 20" fill="none" xmlns="http://www.w3.org/2000/svg">
<g clip-path="url(#clip0_387_835)">
<path d="M4.7521 3.82518C4.7521 4.34785 4.57095 4.79331 4.20864 5.16156C3.84634 5.52981 3.40385 5.71393 2.88118 5.71393C2.3585 5.71393 1.91304 5.52981 1.5448 5.16156C1.17655 4.79331 0.992428 4.34785 0.992428 3.82518C0.992428 3.30251 1.17655 2.85408 1.5448 2.47989C1.91304 2.10571 2.3585 1.91862 2.88118 1.91862C3.40385 1.91862 3.84634 2.10571 4.20864 2.47989C4.57095 2.85408 4.7521 3.30251 4.7521 3.82518ZM4.76992 7.24631H0.974609V19.3984H4.76992V7.24631ZM10.846 7.24631H7.06849V19.3984H10.846V13.0195C10.846 12.1285 11.0836 11.4514 11.5587 10.9882C12.0339 10.513 12.5595 10.2665 13.1356 10.2487C13.7118 10.2309 14.2374 10.4477 14.7126 10.8991C15.1877 11.3505 15.4253 12.0573 15.4253 13.0195V19.3984H19.2206V11.7009C19.2206 10.2042 18.8583 9.07566 18.1337 8.31541C17.4091 7.55516 16.5746 7.09485 15.6302 6.93449C14.6858 6.77412 13.7504 6.87212 12.8238 7.22849C11.8973 7.59674 11.238 8.14911 10.846 8.8856V7.24631Z" fill="black"/>
</g>
<defs>
<clipPath id="clip0_387_835">
<rect width="18.246" height="18.246" fill="white" transform="matrix(1 0 0 -1 0.974609 19.2168)"/>
</clipPath>
</defs>
</svg>
