<svg width="19" height="20" viewBox="0 0 19 20" fill="none" xmlns="http://www.w3.org/2000/svg">
<g clip-path="url(#clip0_387_833)">
<path d="M9.83199 1.15243C8.59658 1.15243 7.78288 1.1554 7.39087 1.16133C6.99887 1.16727 6.55935 1.18806 6.07231 1.2237C5.58528 1.23558 5.16655 1.28012 4.81612 1.35734C4.46569 1.43455 4.14793 1.52661 3.86284 1.63352C3.23325 1.8711 2.68979 2.21856 2.23246 2.6759C1.77512 3.13323 1.42766 3.66482 1.19008 4.27064V4.30628C1.05941 4.63889 0.958442 4.98932 0.887168 5.35756C0.815895 5.72581 0.774318 6.11187 0.762439 6.51576C0.738682 7.00279 0.723833 7.44231 0.717894 7.83432C0.711954 8.22632 0.708984 9.04002 0.708984 10.2754C0.708984 11.5108 0.711954 12.3275 0.717894 12.7255C0.723833 13.1234 0.738682 13.5659 0.762439 14.0529C0.786197 14.5281 0.833713 14.9409 0.904986 15.2913C0.97626 15.6417 1.07129 15.9654 1.19008 16.2624C1.41578 16.8801 1.76027 17.4206 2.22355 17.8839C2.68682 18.3472 3.22137 18.6916 3.8272 18.9173H3.86284C4.14793 19.0361 4.46569 19.1312 4.81612 19.2024C5.16655 19.2737 5.58528 19.3212 6.07231 19.345C6.55935 19.3687 6.99887 19.3836 7.39087 19.3895C7.78288 19.3955 8.59658 19.3984 9.83199 19.3984C11.0674 19.3984 11.8811 19.3984 12.2731 19.3984C12.6651 19.3984 13.1046 19.3806 13.5917 19.345C13.9955 19.3331 14.3846 19.2915 14.7588 19.2203C15.133 19.149 15.4982 19.048 15.8546 18.9173H15.8011C16.4307 18.6916 16.9742 18.3472 17.4315 17.8839C17.8889 17.4206 18.2363 16.886 18.4739 16.2802V16.2624C18.5927 15.9773 18.6877 15.6566 18.759 15.3002C18.8303 14.9438 18.8778 14.5281 18.9015 14.0529C18.9253 13.5659 18.9401 13.1234 18.9461 12.7255C18.952 12.3275 18.955 11.5108 18.955 10.2754C18.955 9.04002 18.952 8.22632 18.9461 7.83432C18.9401 7.44231 18.9253 7.00279 18.9015 6.51576C18.8897 6.12375 18.8481 5.73769 18.7768 5.35756C18.7055 4.97744 18.5986 4.60919 18.4561 4.25282L18.4739 4.30628C18.2482 3.68857 17.9037 3.14808 17.4404 2.6848C16.9772 2.22153 16.4426 1.87704 15.8368 1.65134L15.8011 1.63352C15.4804 1.51473 15.133 1.41673 14.7588 1.33952C14.3846 1.26231 14.0015 1.2237 13.6095 1.2237H13.5917C13.1046 1.18806 12.6651 1.16727 12.2731 1.16133C11.8811 1.1554 11.0674 1.15243 9.83199 1.15243ZM9.83199 2.79172C11.0555 2.79172 11.8544 2.79766 12.2286 2.80953C12.6027 2.82141 13.0334 2.83923 13.5204 2.86299C13.9599 2.87487 14.3103 2.91348 14.5717 2.97881C14.833 3.04414 15.0468 3.10651 15.2131 3.1659C15.427 3.24905 15.617 3.34409 15.7833 3.451C15.9496 3.55791 16.11 3.68857 16.2644 3.843C16.4188 4.00931 16.5495 4.17264 16.6564 4.333C16.7633 4.49337 16.8584 4.68046 16.9415 4.89428C17.0009 5.06059 17.0633 5.27441 17.1286 5.53574C17.1939 5.79708 17.2385 6.15345 17.2623 6.60485C17.286 7.08 17.3009 7.50764 17.3068 7.88777C17.3127 8.26789 17.3157 9.06378 17.3157 10.2754C17.3157 11.499 17.3127 12.3008 17.3068 12.6809C17.3009 13.061 17.286 13.4887 17.2623 13.9638C17.2385 14.4034 17.1969 14.7538 17.1375 15.0151C17.0781 15.2765 17.0128 15.4903 16.9415 15.6566C16.8584 15.8704 16.7633 16.0605 16.6564 16.2268C16.5495 16.3931 16.4188 16.5534 16.2644 16.7079C16.11 16.8742 15.9496 17.0078 15.7833 17.1088C15.617 17.2097 15.427 17.3077 15.2131 17.4028C15.0587 17.4503 14.8508 17.5097 14.5895 17.581C14.3282 17.6522 13.9718 17.6938 13.5204 17.7057C13.0334 17.7295 12.5998 17.7443 12.2197 17.7502C11.8395 17.7562 11.0436 17.7591 9.83199 17.7591C8.60846 17.7591 7.80961 17.7562 7.43542 17.7502C7.06123 17.7443 6.63062 17.7295 6.14359 17.7057C5.84661 17.7057 5.55261 17.679 5.26158 17.6255C4.97054 17.5721 4.68842 17.4919 4.41521 17.385L4.45084 17.4028C4.2489 17.3196 4.05884 17.2216 3.88065 17.1088C3.70247 16.9959 3.54211 16.8623 3.39956 16.7079C3.25701 16.5653 3.12634 16.4079 3.00755 16.2357C2.88877 16.0634 2.79373 15.8823 2.72246 15.6922V15.6566C2.66307 15.5022 2.6007 15.2943 2.53537 15.0329C2.47003 14.7716 2.42549 14.4152 2.40173 13.9638C2.37797 13.4887 2.36312 13.061 2.35718 12.6809C2.35124 12.3008 2.34827 11.499 2.34827 10.2754C2.34827 9.06378 2.35124 8.26789 2.35718 7.88777C2.36312 7.50764 2.37797 7.08 2.40173 6.60485C2.42549 6.15345 2.46706 5.79708 2.52646 5.53574C2.58585 5.27441 2.65119 5.06059 2.72246 4.89428C2.80561 4.68046 2.90064 4.49337 3.00755 4.333C3.11446 4.17264 3.24513 4.00931 3.39956 3.843C3.55398 3.68857 3.71435 3.55791 3.88065 3.451C4.04696 3.34409 4.23702 3.24905 4.45084 3.1659C4.60527 3.10651 4.81315 3.04414 5.07449 2.97881C5.33582 2.91348 5.69219 2.87487 6.14359 2.86299C6.63062 2.83923 7.0642 2.82141 7.44433 2.80953C7.82445 2.79766 8.62034 2.79172 9.83199 2.79172ZM9.83199 13.3224C8.98859 13.3224 8.26991 13.0254 7.67597 12.4315C7.08202 11.8375 6.78505 11.1188 6.78505 10.2754C6.78505 9.44391 7.08202 8.7282 7.67597 8.12832C8.26991 7.52843 8.98859 7.22849 9.83199 7.22849C10.6754 7.22849 11.3941 7.52843 11.988 8.12832C12.582 8.7282 12.8789 9.44391 12.8789 10.2754C12.8789 11.1188 12.582 11.8375 11.988 12.4315C11.3941 13.0254 10.6754 13.3224 9.83199 13.3224ZM9.83199 5.5892C9.19053 5.5892 8.5847 5.71393 8.01452 5.96339C7.44433 6.21284 6.94541 6.54842 6.51777 6.97012C6.09013 7.39183 5.75752 7.88777 5.51994 8.45796C5.27049 9.02815 5.14576 9.63397 5.14576 10.2754C5.14576 10.9288 5.27049 11.5405 5.51994 12.1107C5.75752 12.6809 6.09013 13.1769 6.51777 13.5986C6.94541 14.0203 7.44433 14.3558 8.01452 14.6053C8.5847 14.8429 9.19053 14.9617 9.83199 14.9617C10.4735 14.9617 11.0793 14.8429 11.6495 14.6053C12.2197 14.3558 12.7186 14.0203 13.1462 13.5986C13.5738 13.1769 13.9065 12.6809 14.144 12.1107C14.3935 11.5405 14.5182 10.9288 14.5182 10.2754C14.5182 9.63397 14.3935 9.02815 14.144 8.45796C13.9065 7.88777 13.5738 7.39183 13.1462 6.97012C12.7186 6.54842 12.2197 6.21284 11.6495 5.96339C11.0793 5.71393 10.4735 5.5892 9.83199 5.5892ZM15.8011 5.41102C15.8011 5.71987 15.6942 5.97823 15.4804 6.18612C15.2666 6.394 15.0053 6.49794 14.6964 6.49794C14.3994 6.49794 14.144 6.394 13.9302 6.18612C13.7164 5.97823 13.6095 5.71987 13.6095 5.41102C13.6095 5.11404 13.7164 4.85865 13.9302 4.64483C14.144 4.43101 14.3994 4.3241 14.6964 4.3241C15.0053 4.3241 15.2666 4.43101 15.4804 4.64483C15.6942 4.85865 15.8011 5.11404 15.8011 5.41102Z" fill="black"/>
</g>
<defs>
<clipPath id="clip0_387_833">
<rect width="18.246" height="18.246" fill="white" transform="matrix(1 0 0 -1 0.708984 19.2168)"/>
</clipPath>
</defs>
</svg>
