<svg width="17" height="17" viewBox="0 0 17 17" fill="none" xmlns="http://www.w3.org/2000/svg">
<g clip-path="url(#clip0_387_824)">
<path d="M9.53166 15.0775H9.49193C9.34619 15.0688 9.20744 15.012 9.09727 14.9162C8.98709 14.8204 8.91167 14.6909 8.88274 14.5478L7.86301 9.53524C7.83705 9.40798 7.77425 9.29117 7.68242 9.19934C7.59059 9.1075 7.47377 9.0447 7.34652 9.01875L2.33395 7.99902C2.19058 7.97055 2.06065 7.89543 1.96444 7.78538C1.86822 7.67533 1.81113 7.53653 1.80206 7.39064C1.79299 7.24474 1.83245 7.09994 1.91429 6.97882C1.99613 6.8577 2.11575 6.76707 2.25449 6.72105L12.8491 3.19172C12.968 3.14262 13.0987 3.12923 13.2251 3.15318C13.3515 3.17713 13.4682 3.23739 13.5609 3.32659C13.6536 3.4158 13.7183 3.53008 13.7472 3.65548C13.776 3.78087 13.7676 3.91194 13.7231 4.03267L10.1938 14.6273C10.1477 14.7643 10.0581 14.8825 9.93851 14.9638C9.81894 15.0451 9.67605 15.0851 9.53166 15.0775Z" fill="black"/>
</g>
<defs>
<clipPath id="clip0_387_824">
<rect width="15.8919" height="15.8919" fill="white" transform="translate(0.810547 0.702148)"/>
</clipPath>
</defs>
</svg>
