<svg width="24" height="25" viewBox="0 0 24 25" fill="none" xmlns="http://www.w3.org/2000/svg">
<g clip-path="url(#clip0_117_2223)">
<path d="M13.6701 22.3782H13.6101C13.39 22.365 13.1804 22.2793 13.0141 22.1346C12.8477 21.99 12.7338 21.7944 12.6901 21.5782L11.1501 14.0082C11.1109 13.8161 11.016 13.6396 10.8773 13.501C10.7387 13.3623 10.5623 13.2674 10.3701 13.2282L2.80007 11.6882C2.58354 11.6452 2.38733 11.5318 2.24203 11.3656C2.09672 11.1994 2.0105 10.9898 1.9968 10.7694C1.9831 10.5491 2.0427 10.3304 2.16629 10.1475C2.28989 9.96461 2.47054 9.82773 2.68007 9.75823L18.6801 4.42823C18.8597 4.35408 19.057 4.33385 19.2479 4.37002C19.4388 4.40619 19.615 4.4972 19.7551 4.63192C19.8951 4.76663 19.9928 4.93922 20.0363 5.12859C20.0798 5.31796 20.0672 5.51591 20.0001 5.69823L14.6701 21.6982C14.6005 21.9052 14.4651 22.0837 14.2845 22.2065C14.1039 22.3293 13.8881 22.3896 13.6701 22.3782Z" fill="#C2C2C2"/>
</g>
<defs>
<clipPath id="clip0_117_2223">
<rect width="24" height="24" fill="white" transform="translate(0 0.586914)"/>
</clipPath>
</defs>
</svg>
