<svg width="29" height="28" viewBox="0 0 29 28" fill="none" xmlns="http://www.w3.org/2000/svg">
<g clip-path="url(#clip0_762_345)">
<path d="M14.4941 11.4546V16.8764H22.0287C21.6978 18.6201 20.705 20.0965 19.2159 21.0892L23.7595 24.6147C26.4068 22.1711 27.9341 18.582 27.9341 14.3184C27.9341 13.3257 27.845 12.371 27.6795 11.4547L14.4941 11.4546Z" fill="#4285F4"/>
<path d="M6.64818 16.6648L5.62343 17.4492L1.99609 20.2746C4.29972 24.8437 9.02119 28.0001 14.4939 28.0001C18.2738 28.0001 21.4428 26.7528 23.7592 24.6147L19.2156 21.0892C17.9684 21.9292 16.3774 22.4383 14.4939 22.4383C10.8539 22.4383 7.76126 19.982 6.65391 16.6729L6.64818 16.6648Z" fill="#34A853"/>
<path d="M1.99585 7.72534C1.04136 9.6089 0.494141 11.7344 0.494141 13.9998C0.494141 16.2652 1.04136 18.3907 1.99585 20.2743C1.99585 20.2869 6.65411 16.6597 6.65411 16.6597C6.37411 15.8197 6.20861 14.9289 6.20861 13.9997C6.20861 13.0704 6.37411 12.1796 6.65411 11.3396L1.99585 7.72534Z" fill="#FBBC05"/>
<path d="M14.4942 5.57454C16.556 5.57454 18.3887 6.28725 19.8523 7.66181L23.8614 3.65277C21.4305 1.38736 18.2742 0 14.4942 0C9.02148 0 4.29972 3.14363 1.99609 7.72546L6.65421 11.34C7.76142 8.03089 10.8542 5.57454 14.4942 5.57454Z" fill="#EA4335"/>
</g>
<defs>
<clipPath id="clip0_762_345">
<rect width="28" height="28" fill="white" transform="translate(0.494141)"/>
</clipPath>
</defs>
</svg>
