<svg width="77" height="78" viewBox="0 0 77 78" fill="none" xmlns="http://www.w3.org/2000/svg">
<g clip-path="url(#clip0_117_947)">
<g clip-path="url(#clip1_117_947)">
<g clip-path="url(#clip2_117_947)">
<path d="M68.4595 27.9788H8.51181C6.93162 27.9788 5.65063 29.2605 5.65063 30.8416V74.83C5.65063 76.4111 6.93162 77.6928 8.51181 77.6928H68.4595C70.0397 77.6928 71.3208 76.4111 71.3208 74.83V30.8416C71.3208 29.2605 70.0397 27.9788 68.4595 27.9788Z" fill="#EFEBEA"/>
<g style="mix-blend-mode:multiply">
<path d="M26.5012 42.958C32.5286 42.958 37.4148 38.0691 37.4148 32.038C37.4148 26.0071 32.5286 21.1182 26.5012 21.1182C20.4739 21.1182 15.5876 26.0071 15.5876 32.038C15.5876 38.0691 20.4739 42.958 26.5012 42.958Z" fill="#4CAF50"/>
</g>
<path d="M43.2399 63.9805C43.2399 59.5386 41.4764 55.2786 38.3372 52.1377C35.1982 48.9967 30.9406 47.2321 26.5012 47.2321C22.0617 47.2321 17.8043 48.9967 14.6651 52.1377C11.526 55.2786 9.76245 59.5386 9.76245 63.9805" stroke="black" stroke-width="3.20785" stroke-miterlimit="10"/>
<path d="M64.3647 25.6297L59.225 21.8412C58.7281 21.4763 58.1279 21.2795 57.5117 21.2795C56.8954 21.2795 56.2952 21.4763 55.7984 21.8412L53.6055 23.5555C51.2466 21.1777 49.4393 18.3098 48.3114 15.1555L50.8299 13.9383C51.407 13.6842 51.8873 13.2516 52.2004 12.7041C52.4691 12.1755 52.5592 11.574 52.4575 10.9898L51.224 4.76693C51.108 4.09069 50.7505 3.47962 50.2178 3.04756C49.6852 2.61549 49.0138 2.39187 48.3286 2.41837L43.2743 2.57267C42.5779 2.60481 41.9158 2.88442 41.4068 3.36124C40.9037 3.83991 40.5928 4.48624 40.533 5.17837C40.0323 11.5134 41.5939 17.8405 44.9847 23.214C48.3754 28.5875 53.4132 32.7185 59.3449 34.9897L59.7219 35.1097C60.3291 35.2763 60.9747 35.2341 61.555 34.9897C62.1253 34.7282 62.5905 34.2811 62.8742 33.7211L65.1872 29.2297C65.5107 28.6385 65.6023 27.9478 65.4442 27.2926C65.2997 26.6249 64.9157 26.0334 64.3647 25.6297Z" stroke="black" stroke-width="3.20785" stroke-linecap="round" stroke-linejoin="round"/>
<path d="M0.802002 69.123H76.1864" stroke="black" stroke-width="3.20785" stroke-miterlimit="10"/>
</g>
</g>
</g>
<defs>
<clipPath id="clip0_117_947">
<rect width="76.9883" height="76.9883" fill="white" transform="translate(0 0.705811)"/>
</clipPath>
<clipPath id="clip1_117_947">
<rect width="76.9883" height="76.9883" fill="white" transform="translate(0 0.705811)"/>
</clipPath>
<clipPath id="clip2_117_947">
<rect width="75.3844" height="76.9883" fill="white" transform="translate(0.802002 0.705811)"/>
</clipPath>
</defs>
</svg>
